Mozilla Headline-Bold Italic.ufo
<glyph name="parenleft" format="1">
  <advance width="306"/>
  <unicode hex="0028"/>
  <outline>
    <contour>
      <point x="128" y="-92" type="curve"/>
      <point x="242" y="-92" type="line"/>
      <point x="168" y="48"/>
      <point x="154" y="151"/>
      <point x="178" y="308" type="curve" smooth="yes"/>
      <point x="190" y="382" type="line" smooth="yes"/>
      <point x="214" y="539"/>
      <point x="267" y="642"/>
      <point x="388" y="782" type="curve"/>
      <point x="264" y="782" type="line"/>
      <point x="148" y="671"/>
      <point x="81" y="541"/>
      <point x="51" y="352" type="curve" smooth="yes"/>
      <point x="20" y="165"/>
      <point x="41" y="29"/>
    </contour>
  </outline>
</glyph>
<glyph name="comma" format="1">
  <advance width="243"/>
  <unicode hex="002C"/>
  <outline>
    <contour>
      <point x="-17" y="-98" type="line"/>
      <point x="60" y="-98" type="line"/>
      <point x="153" y="0" type="line"/>
      <point x="178" y="147" type="line"/>
      <point x="25" y="147" type="line"/>
      <point x="0" y="0" type="line"/>
      <point x="73" y="0" type="line"/>
    </contour>
  </outline>
</glyph>
<glyph name="hyphen" format="1">
  <advance width="339"/>
  <unicode hex="002D"/>
  <outline>
    <contour>
      <point x="50" y="233" type="line"/>
      <point x="277" y="233" type="line"/>
      <point x="295" y="335" type="line"/>
      <point x="68" y="335" type="line"/>
    </contour>
  </outline>
</glyph>
<glyph name="period" format="1">
  <advance width="243"/>
  <unicode hex="002E"/>
  <outline>
    <contour>
      <point x="0" y="0" type="line"/>
      <point x="153" y="0" type="line"/>
      <point x="178" y="147" type="line"/>
      <point x="25" y="147" type="line"/>
    </contour>
  </outline>
</glyph>
<glyph name="one" format="1">
  <advance width="464"/>
  <unicode hex="0031"/>
  <outline>
    <contour>
      <point x="0" y="0" type="line"/>
      <point x="400" y="0" type="line"/>
      <point x="418" y="107" type="line"/>
      <point x="291" y="107" type="line"/>
      <point x="389" y="690" type="line"/>
      <point x="291" y="690" type="line"/>
      <point x="104" y="604" type="line"/>
      <point x="85" y="491" type="line"/>
      <point x="219" y="551" type="line"/>
      <point x="144" y="107" type="line"/>
      <point x="17" y="107" type="line"/>
    </contour>
  </outline>
</glyph>
<glyph name="two" format="1">
  <advance width="614"/>
  <unicode hex="0032"/>
  <outline>
    <contour>
      <point x="26" y="156" type="curve" smooth="yes"/>
      <point x="0" y="0" type="line"/>
      <point x="516" y="0" type="line"/>
      <point x="552" y="211" type="line"/>
      <point x="430" y="211" type="line"/>
      <point x="413" y="110" type="line"/>
      <point x="93" y="110" type="line"/>
      <point x="153" y="44" type="line"/>
      <point x="170" y="147" type="line" smooth="yes"/>
      <point x="180" y="211"/>
      <point x="209" y="241"/>
      <point x="272" y="256" type="curve" smooth="yes"/>
      <point x="396" y="285" type="line" smooth="yes"/>
      <point x="523" y="315"/>
      <point x="587" y="371"/>
      <point x="603" y="470" type="curve" smooth="yes"/>
      <point x="605" y="482" type="line" smooth="yes"/>
      <point x="629" y="624"/>
      <point x="517" y="700"/>
      <point x="361" y="700" type="curve" smooth="yes"/>
      <point x="205" y="700"/>
      <point x="116" y="627"/>
      <point x="76" y="448" type="curve"/>
      <point x="221" y="448" type="line"/>
      <point x="225" y="476" type="line" smooth="yes"/>
      <point x="238" y="547"/>
      <point x="277" y="586"/>
      <point x="355" y="586" type="curve" smooth="yes"/>
      <point x="424" y="586"/>
      <point x="469" y="552"/>
      <point x="460" y="502" type="curve" smooth="yes"/>
      <point x="456" y="474" type="line" smooth="yes"/>
      <point x="449" y="438"/>
      <point x="422" y="416"/>
      <point x="362" y="402" type="curve" smooth="yes"/>
      <point x="239" y="373" type="line" smooth="yes"/>
      <point x="110" y="342"/>
      <point x="47" y="280"/>
    </contour>
  </outline>
</glyph>
<glyph name="four" format="1">
  <advance width="584"/>
  <unicode hex="0034"/>
  <outline>
    <contour>
      <point x="8" y="151" type="line"/>
      <point x="543" y="151" type="line"/>
      <point x="560" y="257" type="line"/>
      <point x="180" y="257" type="line"/>
      <point x="436" y="690" type="line"/>
      <point x="279" y="690" type="line"/>
      <point x="25" y="257" type="line"/>
    </contour>
    <contour>
      <point x="281" y="0" type="line"/>
      <point x="428" y="0" type="line"/>
      <point x="500" y="430" type="line"/>
      <point x="402" y="430" type="line"/>
      <point x="336" y="323" type="line"/>
    </contour>
  </outline>
</glyph>
<glyph name="six" format="1">
  <advance width="621"/>
  <unicode hex="0036"/>
  <outline>
    <contour>
      <point x="300" y="-10" type="curve" smooth="yes"/>
      <point x="452" y="-10"/>
      <point x="548" y="64"/>
      <point x="572" y="211" type="curve" smooth="yes"/>
      <point x="598" y="368"/>
      <point x="513" y="458"/>
      <point x="389" y="458" type="curve" smooth="yes"/>
      <point x="315" y="458"/>
      <point x="259" y="422"/>
      <point x="236" y="357" type="curve"/>
      <point x="203" y="357" type="line"/>
      <point x="218" y="409"/>
      <point x="225" y="434"/>
      <point x="228" y="457" type="curve" smooth="yes"/>
      <point x="232" y="477" type="line" smooth="yes"/>
      <point x="244" y="547"/>
      <point x="282" y="586"/>
      <point x="360" y="586" type="curve" smooth="yes"/>
      <point x="431" y="586"/>
      <point x="468" y="547"/>
      <point x="462" y="510" type="curve" smooth="yes"/>
      <point x="460" y="495" type="line"/>
      <point x="608" y="495" type="line"/>
      <point x="601" y="641"/>
      <point x="514" y="700"/>
      <point x="359" y="700" type="curve" smooth="yes"/>
      <point x="188" y="700"/>
      <point x="99" y="606"/>
      <point x="59" y="361" type="curve" smooth="yes"/>
      <point x="15" y="97"/>
      <point x="85" y="-10"/>
    </contour>
    <contour>
      <point x="294" y="103" type="curve" smooth="yes"/>
      <point x="219" y="103"/>
      <point x="177" y="141"/>
      <point x="188" y="208" type="curve" smooth="yes"/>
      <point x="196" y="259" type="line" smooth="yes"/>
      <point x="207" y="322"/>
      <point x="244" y="355"/>
      <point x="320" y="355" type="curve" smooth="yes"/>
      <point x="397" y="355"/>
      <point x="438" y="317"/>
      <point x="427" y="250" type="curve" smooth="yes"/>
      <point x="419" y="198" type="line" smooth="yes"/>
      <point x="408" y="135"/>
      <point x="371" y="103"/>
    </contour>
  </outline>
</glyph>
<glyph name="seven" format="1">
  <advance width="546"/>
  <unicode hex="0037"/>
  <outline>
    <contour>
      <point x="63" y="0" type="line"/>
      <point x="222" y="0" type="line"/>
      <point x="575" y="580" type="line"/>
      <point x="594" y="690" type="line"/>
      <point x="99" y="690" type="line"/>
      <point x="64" y="483" type="line"/>
      <point x="186" y="483" type="line"/>
      <point x="202" y="580" type="line"/>
      <point x="416" y="580" type="line"/>
    </contour>
  </outline>
</glyph>
<glyph name="eight" format="1">
  <advance width="630"/>
  <unicode hex="0038"/>
  <outline>
    <contour>
      <point x="296" y="-10" type="curve" smooth="yes"/>
      <point x="449" y="-10"/>
      <point x="551" y="51"/>
      <point x="571" y="176" type="curve" smooth="yes"/>
      <point x="586" y="265"/>
      <point x="546" y="325"/>
      <point x="470" y="332" type="curve"/>
      <point x="475" y="365" type="line"/>
      <point x="563" y="372"/>
      <point x="603" y="405"/>
      <point x="617" y="490" type="curve" smooth="yes"/>
      <point x="641" y="642"/>
      <point x="502" y="700"/>
      <point x="360" y="700" type="curve" smooth="yes"/>
      <point x="212" y="700"/>
      <point x="112" y="641"/>
      <point x="93" y="521" type="curve" smooth="yes"/>
      <point x="79" y="436"/>
      <point x="117" y="379"/>
      <point x="190" y="372" type="curve"/>
      <point x="184" y="339" type="line"/>
      <point x="92" y="332"/>
      <point x="49" y="297"/>
      <point x="34" y="207" type="curve" smooth="yes"/>
      <point x="9" y="51"/>
      <point x="149" y="-10"/>
    </contour>
    <contour>
      <point x="296" y="104" type="curve" smooth="yes"/>
      <point x="217" y="104"/>
      <point x="173" y="135"/>
      <point x="182" y="190" type="curve" smooth="yes"/>
      <point x="188" y="229" type="line" smooth="yes"/>
      <point x="197" y="279"/>
      <point x="234" y="304"/>
      <point x="313" y="304" type="curve" smooth="yes"/>
      <point x="392" y="304"/>
      <point x="436" y="273"/>
      <point x="427" y="218" type="curve" smooth="yes"/>
      <point x="421" y="180" type="line" smooth="yes"/>
      <point x="412" y="129"/>
      <point x="375" y="104"/>
    </contour>
    <contour>
      <point x="345" y="400" type="curve" smooth="yes"/>
      <point x="270" y="400"/>
      <point x="228" y="429"/>
      <point x="236" y="481" type="curve" smooth="yes"/>
      <point x="242" y="516" type="line" smooth="yes"/>
      <point x="250" y="563"/>
      <point x="285" y="586"/>
      <point x="360" y="586" type="curve" smooth="yes"/>
      <point x="435" y="586"/>
      <point x="477" y="556"/>
      <point x="469" y="505" type="curve" smooth="yes"/>
      <point x="463" y="470" type="line" smooth="yes"/>
      <point x="455" y="423"/>
      <point x="421" y="400"/>
    </contour>
  </outline>
</glyph>
<glyph name="nine" format="1">
  <advance width="621"/>
  <unicode hex="0039"/>
  <outline>
    <contour>
      <point x="348" y="700" type="curve" smooth="yes"/>
      <point x="195" y="700"/>
      <point x="100" y="626"/>
      <point x="75" y="479" type="curve" smooth="yes"/>
      <point x="49" y="322"/>
      <point x="135" y="232"/>
      <point x="259" y="232" type="curve" smooth="yes"/>
      <point x="332" y="232"/>
      <point x="388" y="268"/>
      <point x="412" y="333" type="curve"/>
      <point x="444" y="333" type="line"/>
      <point x="429" y="281"/>
      <point x="423" y="256"/>
      <point x="419" y="233" type="curve" smooth="yes"/>
      <point x="416" y="213" type="line" smooth="yes"/>
      <point x="404" y="143"/>
      <point x="365" y="104"/>
      <point x="288" y="104" type="curve" smooth="yes"/>
      <point x="216" y="104"/>
      <point x="180" y="143"/>
      <point x="185" y="180" type="curve" smooth="yes"/>
      <point x="188" y="195" type="line"/>
      <point x="39" y="195" type="line"/>
      <point x="47" y="49"/>
      <point x="133" y="-10"/>
      <point x="288" y="-10" type="curve" smooth="yes"/>
      <point x="459" y="-10"/>
      <point x="548" y="84"/>
      <point x="589" y="329" type="curve" smooth="yes"/>
      <point x="633" y="593"/>
      <point x="562" y="700"/>
    </contour>
    <contour>
      <point x="353" y="587" type="curve" smooth="yes"/>
      <point x="429" y="587"/>
      <point x="471" y="549"/>
      <point x="460" y="482" type="curve" smooth="yes"/>
      <point x="451" y="431" type="line" smooth="yes"/>
      <point x="441" y="368"/>
      <point x="403" y="335"/>
      <point x="327" y="335" type="curve" smooth="yes"/>
      <point x="251" y="335"/>
      <point x="209" y="373"/>
      <point x="220" y="440" type="curve" smooth="yes"/>
      <point x="229" y="492" type="line" smooth="yes"/>
      <point x="239" y="555"/>
      <point x="277" y="587"/>
    </contour>
  </outline>
</glyph>
<glyph name="greater" format="1">
  <advance width="474"/>
  <unicode hex="003E"/>
  <outline>
    <contour>
      <point x="2" y="113" type="line"/>
      <point x="451" y="259" type="line"/>
      <point x="476" y="415" type="line"/>
      <point x="77" y="561" type="line"/>
      <point x="59" y="457" type="line"/>
      <point x="356" y="358" type="line"/>
      <point x="350" y="325" type="line"/>
      <point x="21" y="226" type="line"/>
    </contour>
  </outline>
</glyph>
<glyph name="question" format="1">
  <advance width="543"/>
  <unicode hex="003F"/>
  <outline>
    <contour>
      <point x="203" y="250" type="curve" smooth="yes"/>
      <point x="199" y="191" type="line"/>
      <point x="283" y="191" type="line"/>
      <point x="294" y="233" type="line" smooth="yes"/>
      <point x="301" y="260"/>
      <point x="313" y="272"/>
      <point x="352" y="284" type="curve" smooth="yes"/>
      <point x="488" y="322"/>
      <point x="540" y="370"/>
      <point x="557" y="473" type="curve" smooth="yes"/>
      <point x="559" y="483" type="line" smooth="yes"/>
      <point x="583" y="627"/>
      <point x="469" y="700"/>
      <point x="318" y="700" type="curve" smooth="yes"/>
      <point x="171" y="700"/>
      <point x="82" y="632"/>
      <point x="43" y="462" type="curve"/>
      <point x="188" y="462" type="line"/>
      <point x="193" y="490" type="line" smooth="yes"/>
      <point x="203" y="551"/>
      <point x="241" y="586"/>
      <point x="313" y="586" type="curve" smooth="yes"/>
      <point x="376" y="586"/>
      <point x="424" y="558"/>
      <point x="415" y="503" type="curve" smooth="yes"/>
      <point x="411" y="480" type="line" smooth="yes"/>
      <point x="404" y="440"/>
      <point x="380" y="417"/>
      <point x="322" y="400" type="curve" smooth="yes"/>
      <point x="237" y="372"/>
      <point x="204" y="335"/>
    </contour>
    <contour>
      <point x="133" y="0" type="line"/>
      <point x="285" y="0" type="line"/>
      <point x="310" y="147" type="line"/>
      <point x="158" y="147" type="line"/>
    </contour>
  </outline>
</glyph>
<glyph name="at" format="1">
  <advance width="842"/>
  <unicode hex="0040"/>
  <outline>
    <contour>
      <point x="369" y="-85" type="curve" smooth="yes"/>
      <point x="637" y="-85" type="line"/>
      <point x="652" y="7" type="line"/>
      <point x="394" y="7" type="line" smooth="yes"/>
      <point x="213" y="7"/>
      <point x="117" y="103"/>
      <point x="145" y="274" type="curve" smooth="yes"/>
      <point x="157" y="347" type="line" smooth="yes"/>
      <point x="185" y="516"/>
      <point x="279" y="600"/>
      <point x="460" y="600" type="curve" smooth="yes"/>
      <point x="641" y="600"/>
      <point x="738" y="505"/>
      <point x="710" y="334" type="curve" smooth="yes"/>
      <point x="697" y="258" type="line" smooth="yes"/>
      <point x="686" y="192"/>
      <point x="660" y="156"/>
      <point x="624" y="156" type="curve" smooth="yes"/>
      <point x="606" y="156"/>
      <point x="597" y="167"/>
      <point x="601" y="189" type="curve" smooth="yes"/>
      <point x="627" y="349" type="line" smooth="yes"/>
      <point x="648" y="477"/>
      <point x="569" y="529"/>
      <point x="451" y="529" type="curve" smooth="yes"/>
      <point x="344" y="529"/>
      <point x="275" y="482"/>
      <point x="246" y="375" type="curve"/>
      <point x="374" y="375" type="line"/>
      <point x="375" y="383" type="line" smooth="yes"/>
      <point x="380" y="410"/>
      <point x="398" y="432"/>
      <point x="444" y="432" type="curve" smooth="yes"/>
      <point x="489" y="432"/>
      <point x="511" y="406"/>
      <point x="503" y="357" type="curve" smooth="yes"/>
      <point x="491" y="286" type="line"/>
      <point x="488" y="273" type="line"/>
      <point x="479" y="218" type="line" smooth="yes"/>
      <point x="473" y="178"/>
      <point x="448" y="158"/>
      <point x="400" y="158" type="curve" smooth="yes"/>
      <point x="360" y="158"/>
      <point x="335" y="175"/>
      <point x="339" y="203" type="curve" smooth="yes"/>
      <point x="341" y="216" type="line" smooth="yes"/>
      <point x="345" y="239"/>
      <point x="362" y="255"/>
      <point x="413" y="257" type="curve" smooth="yes"/>
      <point x="486" y="260" type="line"/>
      <point x="500" y="339" type="line"/>
      <point x="388" y="334" type="line" smooth="yes"/>
      <point x="285" y="329"/>
      <point x="222" y="288"/>
      <point x="208" y="203" type="curve" smooth="yes"/>
      <point x="195" y="125"/>
      <point x="246" y="65"/>
      <point x="331" y="65" type="curve" smooth="yes"/>
      <point x="396" y="65"/>
      <point x="439" y="95"/>
      <point x="462" y="162" type="curve"/>
      <point x="490" y="162" type="line"/>
      <point x="488" y="101"/>
      <point x="530" y="65"/>
      <point x="607" y="65" type="curve" smooth="yes"/>
      <point x="721" y="65"/>
      <point x="784" y="124"/>
      <point x="810" y="282" type="curve" smooth="yes"/>
      <point x="853" y="539"/>
      <point x="717" y="693"/>
      <point x="462" y="693" type="curve" smooth="yes"/>
      <point x="237" y="693"/>
      <point x="83" y="563"/>
      <point x="44" y="326" type="curve" smooth="yes"/>
      <point x="4" y="79"/>
      <point x="126" y="-85"/>
    </contour>
  </outline>
</glyph>
<glyph name="B" format="1">
  <advance width="635"/>
  <unicode hex="0042"/>
  <outline>
    <contour>
      <point x="32" y="0" type="line"/>
      <point x="343" y="0" type="line" smooth="yes"/>
      <point x="479" y="0"/>
      <point x="560" y="54"/>
      <point x="580" y="176" type="curve" smooth="yes"/>
      <point x="595" y="268"/>
      <point x="553" y="327"/>
      <point x="476" y="332" type="curve"/>
      <point x="481" y="365" type="line"/>
      <point x="569" y="370"/>
      <point x="612" y="403"/>
      <point x="626" y="491" type="curve" smooth="yes"/>
      <point x="645" y="609"/>
      <point x="573" y="690"/>
      <point x="439" y="690" type="curve" smooth="yes"/>
      <point x="85" y="690" type="line"/>
      <point x="67" y="583" type="line"/>
      <point x="130" y="583" type="line"/>
    </contour>
    <contour>
      <point x="347" y="107" type="curve" smooth="yes"/>
      <point x="196" y="107" type="line"/>
      <point x="230" y="302" type="line"/>
      <point x="370" y="302" type="line" smooth="yes"/>
      <point x="422" y="302"/>
      <point x="446" y="274"/>
      <point x="437" y="222" type="curve" smooth="yes"/>
      <point x="430" y="179" type="line" smooth="yes"/>
      <point x="422" y="129"/>
      <point x="399" y="107"/>
    </contour>
    <contour>
      <point x="395" y="402" type="curve" smooth="yes"/>
      <point x="246" y="402" type="line"/>
      <point x="277" y="583" type="line"/>
      <point x="415" y="583" type="line" smooth="yes"/>
      <point x="463" y="583"/>
      <point x="486" y="557"/>
      <point x="478" y="508" type="curve" smooth="yes"/>
      <point x="472" y="469" type="line" smooth="yes"/>
      <point x="464" y="423"/>
      <point x="444" y="402"/>
    </contour>
  </outline>
</glyph>
<glyph name="I" format="1">
  <advance width="359"/>
  <unicode hex="0049"/>
  <outline>
    <contour>
      <point x="-3" y="0" type="line"/>
      <point x="272" y="0" type="line"/>
      <point x="290" y="107" type="line"/>
      <point x="226" y="107" type="line"/>
      <point x="306" y="583" type="line"/>
      <point x="370" y="583" type="line"/>
      <point x="388" y="690" type="line"/>
      <point x="113" y="690" type="line"/>
      <point x="95" y="583" type="line"/>
      <point x="159" y="583" type="line"/>
      <point x="79" y="107" type="line"/>
      <point x="15" y="107" type="line"/>
    </contour>
    <contour>
      <point x="251" y="690" type="move" name="top"/>
    </contour>
  </outline>
</glyph>
<glyph name="K" format="1">
  <advance width="640"/>
  <unicode hex="004B"/>
  <outline>
    <contour>
      <point x="31" y="0" type="line"/>
      <point x="178" y="0" type="line"/>
      <point x="229" y="303" type="line"/>
      <point x="293" y="303" type="line"/>
      <point x="420" y="0" type="line"/>
      <point x="584" y="0" type="line"/>
      <point x="602" y="104" type="line"/>
      <point x="539" y="104" type="line"/>
      <point x="414" y="390" type="line"/>
      <point x="418" y="331" type="line"/>
      <point x="693" y="690" type="line"/>
      <point x="521" y="690" type="line"/>
      <point x="310" y="405" type="line"/>
      <point x="246" y="405" type="line"/>
      <point x="294" y="690" type="line"/>
      <point x="84" y="690" type="line"/>
      <point x="66" y="583" type="line"/>
      <point x="129" y="583" type="line"/>
    </contour>
  </outline>
</glyph>
<glyph name="L" format="1">
  <advance width="577"/>
  <unicode hex="004C"/>
  <outline>
    <contour>
      <point x="33" y="0" type="line"/>
      <point x="504" y="0" type="line"/>
      <point x="539" y="211" type="line"/>
      <point x="418" y="211" type="line"/>
      <point x="400" y="107" type="line"/>
      <point x="197" y="107" type="line"/>
      <point x="278" y="583" type="line"/>
      <point x="340" y="583" type="line"/>
      <point x="358" y="690" type="line"/>
      <point x="86" y="690" type="line"/>
      <point x="68" y="583" type="line"/>
      <point x="131" y="583" type="line"/>
    </contour>
  </outline>
</glyph>
<glyph name="M" format="1">
  <advance width="891"/>
  <unicode hex="004D"/>
  <outline>
    <contour>
      <point x="24" y="0" type="line"/>
      <point x="167" y="0" type="line"/>
      <point x="262" y="569" type="line"/>
      <point x="295" y="569" type="line"/>
      <point x="332" y="0" type="line"/>
      <point x="465" y="0" type="line"/>
      <point x="693" y="569" type="line"/>
      <point x="726" y="569" type="line"/>
      <point x="631" y="0" type="line"/>
      <point x="777" y="0" type="line"/>
      <point x="893" y="690" type="line"/>
      <point x="629" y="690" type="line"/>
      <point x="458" y="263" type="line"/>
      <point x="425" y="263" type="line"/>
      <point x="398" y="690" type="line"/>
      <point x="140" y="690" type="line"/>
    </contour>
  </outline>
</glyph>
<glyph name="P" format="1">
  <advance width="613"/>
  <unicode hex="0050"/>
  <outline>
    <contour>
      <point x="31" y="0" type="line"/>
      <point x="178" y="0" type="line"/>
      <point x="224" y="275" type="line"/>
      <point x="384" y="275" type="line" smooth="yes"/>
      <point x="527" y="275"/>
      <point x="602" y="331"/>
      <point x="625" y="466" type="curve" smooth="yes"/>
      <point x="648" y="606"/>
      <point x="579" y="690"/>
      <point x="434" y="690" type="curve" smooth="yes"/>
      <point x="84" y="690" type="line"/>
      <point x="67" y="583" type="line"/>
      <point x="129" y="583" type="line"/>
    </contour>
    <contour>
      <point x="385" y="375" type="curve" smooth="yes"/>
      <point x="241" y="375" type="line"/>
      <point x="276" y="583" type="line"/>
      <point x="409" y="583" type="line" smooth="yes"/>
      <point x="464" y="583"/>
      <point x="490" y="554"/>
      <point x="481" y="498" type="curve" smooth="yes"/>
      <point x="473" y="454" type="line" smooth="yes"/>
      <point x="464" y="399"/>
      <point x="440" y="375"/>
    </contour>
  </outline>
</glyph>
<glyph name="Q" format="1">
  <advance width="691"/>
  <unicode hex="0051"/>
  <outline>
    <contour>
      <point x="295" y="-132" type="curve" smooth="yes"/>
      <point x="493" y="-132" type="line"/>
      <point x="511" y="-29" type="line"/>
      <point x="368" y="-29" type="line"/>
      <point x="374" y="10" type="line"/>
      <point x="528" y="25"/>
      <point x="630" y="128"/>
      <point x="664" y="331" type="curve" smooth="yes"/>
      <point x="705" y="579"/>
      <point x="596" y="700"/>
      <point x="392" y="700" type="curve" smooth="yes"/>
      <point x="211" y="700"/>
      <point x="92" y="592"/>
      <point x="55" y="367" type="curve" smooth="yes"/>
      <point x="13" y="119"/>
      <point x="122" y="-3"/>
      <point x="327" y="-3" type="curve"/>
      <point x="239" y="58" type="line"/>
      <point x="222" y="-44" type="line" smooth="yes"/>
      <point x="213" y="-101"/>
      <point x="238" y="-132"/>
    </contour>
    <contour>
      <point x="329" y="112" type="curve" smooth="yes"/>
      <point x="224" y="112"/>
      <point x="177" y="171"/>
      <point x="197" y="289" type="curve" smooth="yes"/>
      <point x="218" y="414" type="line" smooth="yes"/>
      <point x="237" y="532"/>
      <point x="284" y="586"/>
      <point x="389" y="586" type="curve" smooth="yes"/>
      <point x="495" y="586"/>
      <point x="542" y="527"/>
      <point x="522" y="409" type="curve" smooth="yes"/>
      <point x="501" y="283" type="line" smooth="yes"/>
      <point x="482" y="165"/>
      <point x="434" y="112"/>
    </contour>
    <contour>
      <point x="417" y="690" type="move" name="top"/>
    </contour>
  </outline>
</glyph>
<glyph name="T" format="1">
  <advance width="598"/>
  <unicode hex="0054"/>
  <outline>
    <contour>
      <point x="181" y="0" type="line"/>
      <point x="327" y="0" type="line"/>
      <point x="425" y="583" type="line"/>
      <point x="507" y="583" type="line"/>
      <point x="490" y="483" type="line"/>
      <point x="611" y="483" type="line"/>
      <point x="646" y="690" type="line"/>
      <point x="95" y="690" type="line"/>
      <point x="60" y="483" type="line"/>
      <point x="181" y="483" type="line"/>
      <point x="197" y="583" type="line"/>
      <point x="279" y="583" type="line"/>
    </contour>
  </outline>
</glyph>
<glyph name="V" format="1">
  <advance width="625"/>
  <unicode hex="0056"/>
  <outline>
    <contour>
      <point x="135" y="0" type="line"/>
      <point x="400" y="0" type="line"/>
      <point x="683" y="690" type="line"/>
      <point x="532" y="690" type="line"/>
      <point x="302" y="121" type="line"/>
      <point x="270" y="121" type="line"/>
      <point x="231" y="690" type="line"/>
      <point x="84" y="690" type="line"/>
    </contour>
  </outline>
</glyph>
<glyph name="X" format="1">
  <advance width="665"/>
  <unicode hex="0058"/>
  <outline>
    <contour>
      <point x="-15" y="0" type="line"/>
      <point x="165" y="0" type="line"/>
      <point x="323" y="288" type="line"/>
      <point x="355" y="288" type="line"/>
      <point x="416" y="0" type="line"/>
      <point x="590" y="0" type="line"/>
      <point x="608" y="105" type="line"/>
      <point x="545" y="105" type="line"/>
      <point x="476" y="411" type="line"/>
      <point x="461" y="328" type="line"/>
      <point x="619" y="585" type="line"/>
      <point x="681" y="585" type="line"/>
      <point x="699" y="690" type="line"/>
      <point x="520" y="690" type="line"/>
      <point x="372" y="420" type="line"/>
      <point x="339" y="420" type="line"/>
      <point x="282" y="690" type="line"/>
      <point x="108" y="690" type="line"/>
      <point x="90" y="585" type="line"/>
      <point x="153" y="585" type="line"/>
      <point x="225" y="328" type="line"/>
      <point x="238" y="411" type="line"/>
      <point x="66" y="105" type="line"/>
      <point x="3" y="105" type="line"/>
    </contour>
  </outline>
</glyph>
<glyph name="Y" format="1">
  <advance width="614"/>
  <unicode hex="0059"/>
  <outline>
    <contour>
      <point x="125" y="0" type="line"/>
      <point x="400" y="0" type="line"/>
      <point x="417" y="107" type="line"/>
      <point x="353" y="107" type="line"/>
      <point x="380" y="261" type="line"/>
      <point x="680" y="690" type="line"/>
      <point x="525" y="690" type="line"/>
      <point x="347" y="425" type="line"/>
      <point x="315" y="425" type="line"/>
      <point x="226" y="690" type="line"/>
      <point x="77" y="690" type="line"/>
      <point x="233" y="260" type="line"/>
      <point x="207" y="107" type="line"/>
      <point x="143" y="107" type="line"/>
    </contour>
    <contour>
      <point x="375" y="690" type="move" name="top"/>
    </contour>
  </outline>
</glyph>
<glyph name="backslash" format="1">
  <advance width="379"/>
  <unicode hex="005C"/>
  <outline>
    <contour>
      <point x="170" y="-92" type="line"/>
      <point x="301" y="-92" type="line"/>
      <point x="235" y="782" type="line"/>
      <point x="103" y="782" type="line"/>
    </contour>
  </outline>
</glyph>
<glyph name="bracketright" format="1">
  <advance width="330"/>
  <unicode hex="005D"/>
  <outline>
    <contour>
      <point x="321" y="782" type="line"/>
      <point x="89" y="782" type="line"/>
      <point x="72" y="683" type="line"/>
      <point x="173" y="683" type="line"/>
      <point x="61" y="7" type="line"/>
      <point x="-40" y="7" type="line"/>
      <point x="-57" y="-92" type="line"/>
      <point x="175" y="-92" type="line"/>
    </contour>
  </outline>
</glyph>
<glyph name="underscore" format="1">
  <advance width="500"/>
  <unicode hex="005F"/>
  <outline>
    <contour>
      <point x="-24" y="-129" type="line"/>
      <point x="392" y="-129" type="line"/>
      <point x="408" y="-26" type="line"/>
      <point x="-7" y="-26" type="line"/>
    </contour>
  </outline>
</glyph>
<glyph name="a" format="1">
  <advance width="553"/>
  <unicode hex="0061"/>
  <outline>
    <contour>
      <point x="156" y="-10" type="curve" smooth="yes"/>
      <point x="236" y="-10"/>
      <point x="280" y="27"/>
      <point x="307" y="103" type="curve"/>
      <point x="340" y="103" type="line"/>
      <point x="337" y="88" type="line" smooth="yes"/>
      <point x="327" y="30"/>
      <point x="353" y="0"/>
      <point x="410" y="0" type="curve" smooth="yes"/>
      <point x="501" y="0" type="line"/>
      <point x="519" y="103" type="line"/>
      <point x="463" y="103" type="line"/>
      <point x="503" y="340" type="line" smooth="yes"/>
      <point x="525" y="471"/>
      <point x="449" y="544"/>
      <point x="304" y="544" type="curve" smooth="yes"/>
      <point x="171" y="544"/>
      <point x="89" y="490"/>
      <point x="54" y="362" type="curve"/>
      <point x="199" y="362" type="line"/>
      <point x="201" y="376" type="line" smooth="yes"/>
      <point x="206" y="403"/>
      <point x="229" y="434"/>
      <point x="288" y="434" type="curve" smooth="yes"/>
      <point x="344" y="434"/>
      <point x="371" y="406"/>
      <point x="360" y="340" type="curve" smooth="yes"/>
      <point x="347" y="260" type="line"/>
      <point x="344" y="246" type="line"/>
      <point x="332" y="170" type="line" smooth="yes"/>
      <point x="324" y="123"/>
      <point x="291" y="97"/>
      <point x="231" y="97" type="curve" smooth="yes"/>
      <point x="180" y="97"/>
      <point x="150" y="119"/>
      <point x="156" y="154" type="curve" smooth="yes"/>
      <point x="159" y="170" type="line" smooth="yes"/>
      <point x="165" y="203"/>
      <point x="191" y="220"/>
      <point x="250" y="223" type="curve" smooth="yes"/>
      <point x="343" y="228" type="line"/>
      <point x="357" y="318" type="line"/>
      <point x="222" y="312" type="line" smooth="yes"/>
      <point x="98" y="306"/>
      <point x="26" y="254"/>
      <point x="10" y="156" type="curve" smooth="yes"/>
      <point x="-6" y="61"/>
      <point x="55" y="-10"/>
    </contour>
    <contour>
      <point x="501" y="0" type="move" name="ogonek"/>
    </contour>
    <contour>
      <point x="317" y="534" type="move" name="top"/>
    </contour>
  </outline>
</glyph>
<glyph name="c" format="1">
  <advance width="562"/>
  <unicode hex="0063"/>
  <outline>
    <contour>
      <point x="262" y="-10" type="curve" smooth="yes"/>
      <point x="393" y="-10"/>
      <point x="483" y="58"/>
      <point x="517" y="194" type="curve"/>
      <point x="371" y="194" type="line"/>
      <point x="368" y="177" type="line" smooth="yes"/>
      <point x="362" y="140"/>
      <point x="336" y="100"/>
      <point x="265" y="100" type="curve" smooth="yes"/>
      <point x="195" y="100"/>
      <point x="164" y="143"/>
      <point x="178" y="228" type="curve" smooth="yes"/>
      <point x="192" y="312" type="line" smooth="yes"/>
      <point x="207" y="397"/>
      <point x="238" y="434"/>
      <point x="308" y="434" type="curve" smooth="yes"/>
      <point x="378" y="434"/>
      <point x="401" y="388"/>
      <point x="397" y="363" type="curve" smooth="yes"/>
      <point x="395" y="348" type="line"/>
      <point x="539" y="348" type="line"/>
      <point x="534" y="477"/>
      <point x="447" y="544"/>
      <point x="313" y="544" type="curve" smooth="yes"/>
      <point x="165" y="544"/>
      <point x="65" y="456"/>
      <point x="37" y="281" type="curve" smooth="yes"/>
      <point x="6" y="92"/>
      <point x="96" y="-10"/>
    </contour>
    <contour>
      <point x="242" y="0" type="move" name="bottom"/>
    </contour>
    <contour>
      <point x="332" y="534" type="move" name="top"/>
    </contour>
  </outline>
</glyph>
<glyph name="d" format="1">
  <advance width="606"/>
  <unicode hex="0064"/>
  <outline>
    <contour>
      <point x="198" y="-10" type="curve" smooth="yes"/>
      <point x="274" y="-10"/>
      <point x="324" y="31"/>
      <point x="352" y="108" type="curve"/>
      <point x="385" y="108" type="line"/>
      <point x="382" y="92" type="line" smooth="yes"/>
      <point x="372" y="33"/>
      <point x="399" y="0"/>
      <point x="461" y="0" type="curve" smooth="yes"/>
      <point x="545" y="0" type="line"/>
      <point x="563" y="103" type="line"/>
      <point x="507" y="103" type="line"/>
      <point x="606" y="690" type="line"/>
      <point x="463" y="690" type="line"/>
      <point x="441" y="561" type="line" smooth="yes"/>
      <point x="436" y="530"/>
      <point x="431" y="498"/>
      <point x="427" y="435" type="curve"/>
      <point x="394" y="435" type="line"/>
      <point x="387" y="508"/>
      <point x="344" y="544"/>
      <point x="269" y="544" type="curve" smooth="yes"/>
      <point x="149" y="544"/>
      <point x="65" y="455"/>
      <point x="37" y="282" type="curve" smooth="yes"/>
      <point x="8" y="109"/>
      <point x="70" y="-10"/>
    </contour>
    <contour>
      <point x="267" y="100" type="curve" smooth="yes"/>
      <point x="196" y="100"/>
      <point x="164" y="143"/>
      <point x="179" y="229" type="curve" smooth="yes"/>
      <point x="192" y="311" type="line" smooth="yes"/>
      <point x="207" y="396"/>
      <point x="239" y="434"/>
      <point x="310" y="434" type="curve" smooth="yes"/>
      <point x="381" y="434"/>
      <point x="413" y="391"/>
      <point x="398" y="305" type="curve" smooth="yes"/>
      <point x="384" y="223" type="line" smooth="yes"/>
      <point x="370" y="138"/>
      <point x="338" y="100"/>
    </contour>
  </outline>
</glyph>
<glyph name="e" format="1">
  <advance width="570"/>
  <unicode hex="0065"/>
  <outline>
    <contour>
      <point x="264" y="-10" type="curve" smooth="yes"/>
      <point x="389" y="-10"/>
      <point x="474" y="51"/>
      <point x="513" y="172" type="curve"/>
      <point x="367" y="172" type="line"/>
      <point x="366" y="162" type="line"/>
      <point x="362" y="138"/>
      <point x="337" y="100"/>
      <point x="268" y="100" type="curve" smooth="yes"/>
      <point x="196" y="100"/>
      <point x="164" y="141"/>
      <point x="178" y="229" type="curve" smooth="yes"/>
      <point x="193" y="314" type="line" smooth="yes"/>
      <point x="208" y="400"/>
      <point x="240" y="437"/>
      <point x="311" y="437" type="curve" smooth="yes"/>
      <point x="383" y="437"/>
      <point x="415" y="394"/>
      <point x="400" y="309" type="curve" smooth="yes"/>
      <point x="393" y="269" type="line"/>
      <point x="498" y="329" type="line"/>
      <point x="135" y="329" type="line"/>
      <point x="119" y="239" type="line"/>
      <point x="530" y="239" type="line"/>
      <point x="536" y="273" type="line" smooth="yes"/>
      <point x="567" y="454"/>
      <point x="471" y="544"/>
      <point x="314" y="544" type="curve" smooth="yes"/>
      <point x="166" y="544"/>
      <point x="65" y="455"/>
      <point x="37" y="281" type="curve" smooth="yes"/>
      <point x="5" y="89"/>
      <point x="98" y="-10"/>
    </contour>
    <contour>
      <point x="326" y="0" type="move" name="ogonek"/>
    </contour>
    <contour>
      <point x="334" y="534" type="move" name="top"/>
    </contour>
  </outline>
</glyph>
<glyph name="g" format="1">
  <advance width="594"/>
  <unicode hex="0067"/>
  <outline>
    <contour>
      <point x="244" y="-142" type="curve" smooth="yes"/>
      <point x="387" y="-142"/>
      <point x="475" y="-81"/>
      <point x="496" y="43" type="curve" smooth="yes"/>
      <point x="578" y="534" type="line"/>
      <point x="454" y="534" type="line"/>
      <point x="436" y="426" type="line"/>
      <point x="403" y="426" type="line"/>
      <point x="394" y="503"/>
      <point x="346" y="544"/>
      <point x="267" y="544" type="curve" smooth="yes"/>
      <point x="148" y="544"/>
      <point x="64" y="454"/>
      <point x="39" y="306" type="curve" smooth="yes"/>
      <point x="14" y="157"/>
      <point x="76" y="47"/>
      <point x="206" y="47" type="curve" smooth="yes"/>
      <point x="277" y="47"/>
      <point x="324" y="81"/>
      <point x="348" y="146" type="curve"/>
      <point x="380" y="146" type="line"/>
      <point x="368" y="104"/>
      <point x="362" y="80"/>
      <point x="356" y="53" type="curve" smooth="yes"/>
      <point x="342" y="-9"/>
      <point x="311" y="-35"/>
      <point x="240" y="-35" type="curve" smooth="yes"/>
      <point x="188" y="-35"/>
      <point x="152" y="-16"/>
      <point x="155" y="2" type="curve"/>
      <point x="155" y="4" type="line"/>
      <point x="13" y="4" type="line"/>
      <point x="29" y="-102"/>
      <point x="124" y="-142"/>
    </contour>
    <contour>
      <point x="273" y="148" type="curve" smooth="yes"/>
      <point x="202" y="148"/>
      <point x="170" y="191"/>
      <point x="182" y="260" type="curve" smooth="yes"/>
      <point x="194" y="328" type="line" smooth="yes"/>
      <point x="205" y="396"/>
      <point x="237" y="434"/>
      <point x="308" y="434" type="curve" smooth="yes"/>
      <point x="379" y="434"/>
      <point x="411" y="391"/>
      <point x="399" y="322" type="curve" smooth="yes"/>
      <point x="388" y="254" type="line" smooth="yes"/>
      <point x="376" y="186"/>
      <point x="344" y="148"/>
    </contour>
  </outline>
</glyph>
<glyph name="i" format="1">
  <advance width="272"/>
  <unicode hex="0069"/>
  <outline>
    <contour>
      <point x="24" y="0" type="line"/>
      <point x="167" y="0" type="line"/>
      <point x="257" y="534" type="line"/>
      <point x="57" y="534" type="line"/>
      <point x="39" y="431" type="line"/>
      <point x="97" y="431" type="line"/>
    </contour>
    <contour>
      <point x="113" y="574" type="line"/>
      <point x="267" y="574" type="line"/>
      <point x="286" y="690" type="line"/>
      <point x="133" y="690" type="line"/>
    </contour>
  </outline>
</glyph>
<glyph name="j" format="1">
  <advance width="272"/>
  <unicode hex="006A"/>
  <outline>
    <contour>
      <point x="-62" y="-132" type="line"/>
      <point x="63" y="-132" type="line" smooth="yes"/>
      <point x="117" y="-132"/>
      <point x="150" y="-104"/>
      <point x="159" y="-50" type="curve" smooth="yes"/>
      <point x="257" y="534" type="line"/>
      <point x="57" y="534" type="line"/>
      <point x="39" y="431" type="line"/>
      <point x="97" y="431" type="line"/>
      <point x="20" y="-29" type="line"/>
      <point x="-44" y="-29" type="line"/>
    </contour>
    <contour>
      <point x="113" y="574" type="line"/>
      <point x="267" y="574" type="line"/>
      <point x="286" y="690" type="line"/>
      <point x="133" y="690" type="line"/>
    </contour>
  </outline>
</glyph>
<glyph name="k" format="1">
  <advance width="572"/>
  <unicode hex="006B"/>
  <outline>
    <contour>
      <point x="15" y="0" type="line"/>
      <point x="158" y="0" type="line"/>
      <point x="196" y="226" type="line"/>
      <point x="253" y="226" type="line"/>
      <point x="358" y="0" type="line"/>
      <point x="510" y="0" type="line"/>
      <point x="527" y="103" type="line"/>
      <point x="472" y="103" type="line"/>
      <point x="369" y="313" type="line"/>
      <point x="374" y="252" type="line"/>
      <point x="599" y="534" type="line"/>
      <point x="430" y="534" type="line"/>
      <point x="270" y="326" type="line"/>
      <point x="213" y="326" type="line"/>
      <point x="274" y="690" type="line"/>
      <point x="76" y="690" type="line"/>
      <point x="58" y="587" type="line"/>
      <point x="114" y="587" type="line"/>
    </contour>
  </outline>
</glyph>
<glyph name="l" format="1">
  <advance width="267"/>
  <unicode hex="006C"/>
  <outline>
    <contour>
      <point x="18" y="0" type="line"/>
      <point x="161" y="0" type="line"/>
      <point x="277" y="690" type="line"/>
      <point x="77" y="690" type="line"/>
      <point x="59" y="587" type="line"/>
      <point x="116" y="587" type="line"/>
    </contour>
  </outline>
</glyph>
<glyph name="m" format="1">
  <advance width="889"/>
  <unicode hex="006D"/>
  <outline>
    <contour>
      <point x="387" y="332" type="curve" smooth="yes"/>
      <point x="331" y="0" type="line"/>
      <point x="474" y="0" type="line"/>
      <point x="531" y="336" type="line" smooth="yes"/>
      <point x="542" y="402"/>
      <point x="569" y="434"/>
      <point x="622" y="434" type="curve" smooth="yes"/>
      <point x="676" y="434"/>
      <point x="699" y="402"/>
      <point x="688" y="332" type="curve" smooth="yes"/>
      <point x="632" y="0" type="line"/>
      <point x="830" y="0" type="line"/>
      <point x="848" y="103" type="line"/>
      <point x="793" y="103" type="line"/>
      <point x="834" y="351" type="line" smooth="yes"/>
      <point x="855" y="474"/>
      <point x="801" y="544"/>
      <point x="701" y="544" type="curve" smooth="yes"/>
      <point x="626" y="544"/>
      <point x="585" y="506"/>
      <point x="559" y="427" type="curve"/>
      <point x="528" y="427" type="line"/>
      <point x="520" y="504"/>
      <point x="475" y="544"/>
      <point x="400" y="544" type="curve" smooth="yes"/>
      <point x="326" y="544"/>
      <point x="285" y="506"/>
      <point x="258" y="427" type="curve"/>
      <point x="226" y="427" type="line"/>
      <point x="244" y="534" type="line"/>
      <point x="65" y="534" type="line"/>
      <point x="47" y="431" type="line"/>
      <point x="103" y="431" type="line"/>
      <point x="30" y="0" type="line"/>
      <point x="173" y="0" type="line"/>
      <point x="230" y="336" type="line" smooth="yes"/>
      <point x="241" y="402"/>
      <point x="268" y="434"/>
      <point x="321" y="434" type="curve" smooth="yes"/>
      <point x="375" y="434"/>
      <point x="398" y="402"/>
    </contour>
  </outline>
</glyph>
<glyph name="n" format="1">
  <advance width="603"/>
  <unicode hex="006E"/>
  <outline>
    <contour>
      <point x="30" y="0" type="line"/>
      <point x="173" y="0" type="line"/>
      <point x="229" y="331" type="line" smooth="yes"/>
      <point x="240" y="400"/>
      <point x="270" y="434"/>
      <point x="329" y="434" type="curve" smooth="yes"/>
      <point x="388" y="434"/>
      <point x="413" y="400"/>
      <point x="400" y="327" type="curve" smooth="yes"/>
      <point x="345" y="0" type="line"/>
      <point x="544" y="0" type="line"/>
      <point x="561" y="103" type="line"/>
      <point x="506" y="103" type="line"/>
      <point x="547" y="351" type="line" smooth="yes"/>
      <point x="568" y="473"/>
      <point x="512" y="544"/>
      <point x="407" y="544" type="curve" smooth="yes"/>
      <point x="330" y="544"/>
      <point x="287" y="506"/>
      <point x="258" y="427" type="curve"/>
      <point x="226" y="427" type="line"/>
      <point x="244" y="534" type="line"/>
      <point x="65" y="534" type="line"/>
      <point x="47" y="431" type="line"/>
      <point x="103" y="431" type="line"/>
    </contour>
    <contour>
      <point x="351" y="534" type="move" name="top"/>
    </contour>
  </outline>
</glyph>
<glyph name="p" format="1">
  <advance width="610"/>
  <unicode hex="0070"/>
  <outline>
    <contour>
      <point x="8" y="-132" type="line"/>
      <point x="151" y="-132" type="line"/>
      <point x="169" y="-27" type="line" smooth="yes"/>
      <point x="174" y="4"/>
      <point x="178" y="36"/>
      <point x="183" y="99" type="curve"/>
      <point x="216" y="99" type="line"/>
      <point x="223" y="26"/>
      <point x="266" y="-10"/>
      <point x="341" y="-10" type="curve" smooth="yes"/>
      <point x="460" y="-10"/>
      <point x="544" y="79"/>
      <point x="573" y="252" type="curve" smooth="yes"/>
      <point x="602" y="425"/>
      <point x="540" y="544"/>
      <point x="411" y="544" type="curve" smooth="yes"/>
      <point x="335" y="544"/>
      <point x="286" y="503"/>
      <point x="258" y="426" type="curve"/>
      <point x="225" y="426" type="line"/>
      <point x="244" y="534" type="line"/>
      <point x="65" y="534" type="line"/>
      <point x="47" y="431" type="line"/>
      <point x="102" y="431" type="line"/>
    </contour>
    <contour>
      <point x="300" y="100" type="curve" smooth="yes"/>
      <point x="229" y="100"/>
      <point x="197" y="143"/>
      <point x="212" y="229" type="curve" smooth="yes"/>
      <point x="225" y="311" type="line" smooth="yes"/>
      <point x="240" y="396"/>
      <point x="272" y="434"/>
      <point x="343" y="434" type="curve" smooth="yes"/>
      <point x="414" y="434"/>
      <point x="446" y="391"/>
      <point x="431" y="305" type="curve" smooth="yes"/>
      <point x="417" y="223" type="line" smooth="yes"/>
      <point x="403" y="138"/>
      <point x="371" y="100"/>
    </contour>
  </outline>
</glyph>
<glyph name="q" format="1">
  <advance width="597"/>
  <unicode hex="0071"/>
  <outline>
    <contour>
      <point x="344" y="-27" type="curve" smooth="yes"/>
      <point x="326" y="-132" type="line"/>
      <point x="469" y="-132" type="line"/>
      <point x="581" y="534" type="line"/>
      <point x="457" y="534" type="line"/>
      <point x="438" y="426" type="line"/>
      <point x="406" y="426" type="line"/>
      <point x="397" y="503"/>
      <point x="348" y="544"/>
      <point x="269" y="544" type="curve" smooth="yes"/>
      <point x="150" y="544"/>
      <point x="66" y="455"/>
      <point x="37" y="282" type="curve" smooth="yes"/>
      <point x="9" y="109"/>
      <point x="71" y="-10"/>
      <point x="199" y="-10" type="curve" smooth="yes"/>
      <point x="271" y="-10"/>
      <point x="317" y="26"/>
      <point x="342" y="99" type="curve"/>
      <point x="375" y="99" type="line"/>
      <point x="357" y="36"/>
      <point x="349" y="4"/>
    </contour>
    <contour>
      <point x="268" y="100" type="curve" smooth="yes"/>
      <point x="197" y="100"/>
      <point x="165" y="143"/>
      <point x="179" y="229" type="curve" smooth="yes"/>
      <point x="193" y="311" type="line" smooth="yes"/>
      <point x="208" y="396"/>
      <point x="239" y="434"/>
      <point x="310" y="434" type="curve" smooth="yes"/>
      <point x="382" y="434"/>
      <point x="413" y="391"/>
      <point x="399" y="305" type="curve" smooth="yes"/>
      <point x="385" y="223" type="line" smooth="yes"/>
      <point x="370" y="138"/>
      <point x="339" y="100"/>
    </contour>
  </outline>
</glyph>
<glyph name="r" format="1">
  <advance width="446"/>
  <unicode hex="0072"/>
  <outline>
    <contour>
      <point x="30" y="0" type="line"/>
      <point x="173" y="0" type="line"/>
      <point x="228" y="326" type="line" smooth="yes"/>
      <point x="240" y="398"/>
      <point x="269" y="431"/>
      <point x="332" y="431" type="curve" smooth="yes"/>
      <point x="449" y="431" type="line"/>
      <point x="468" y="542" type="line"/>
      <point x="400" y="542" type="line" smooth="yes"/>
      <point x="326" y="542"/>
      <point x="286" y="506"/>
      <point x="258" y="427" type="curve"/>
      <point x="226" y="427" type="line"/>
      <point x="244" y="534" type="line"/>
      <point x="65" y="534" type="line"/>
      <point x="47" y="431" type="line"/>
      <point x="103" y="431" type="line"/>
    </contour>
  </outline>
</glyph>
<glyph name="s" format="1">
  <advance width="532"/>
  <unicode hex="0073"/>
  <outline>
    <contour>
      <point x="253" y="-10" type="curve" smooth="yes"/>
      <point x="381" y="-10"/>
      <point x="461" y="37"/>
      <point x="478" y="137" type="curve" smooth="yes"/>
      <point x="492" y="223"/>
      <point x="454" y="280"/>
      <point x="344" y="310" type="curve" smooth="yes"/>
      <point x="257" y="333" type="line" smooth="yes"/>
      <point x="207" y="347"/>
      <point x="195" y="364"/>
      <point x="200" y="392" type="curve" smooth="yes"/>
      <point x="204" y="421"/>
      <point x="227" y="437"/>
      <point x="283" y="437" type="curve" smooth="yes"/>
      <point x="350" y="437"/>
      <point x="375" y="408"/>
      <point x="373" y="376" type="curve" smooth="yes"/>
      <point x="371" y="362" type="line"/>
      <point x="511" y="362" type="line"/>
      <point x="507" y="496"/>
      <point x="421" y="544"/>
      <point x="279" y="544" type="curve" smooth="yes"/>
      <point x="152" y="544"/>
      <point x="73" y="496"/>
      <point x="56" y="397" type="curve" smooth="yes"/>
      <point x="42" y="311"/>
      <point x="78" y="254"/>
      <point x="187" y="224" type="curve" smooth="yes"/>
      <point x="275" y="201" type="line" smooth="yes"/>
      <point x="325" y="187"/>
      <point x="339" y="170"/>
      <point x="334" y="142" type="curve" smooth="yes"/>
      <point x="329" y="113"/>
      <point x="305" y="97"/>
      <point x="247" y="97" type="curve" smooth="yes"/>
      <point x="179" y="97"/>
      <point x="153" y="126"/>
      <point x="155" y="158" type="curve" smooth="yes"/>
      <point x="157" y="172" type="line"/>
      <point x="17" y="172" type="line"/>
      <point x="22" y="37"/>
      <point x="110" y="-10"/>
    </contour>
    <contour>
      <point x="305" y="534" type="move" name="top"/>
    </contour>
  </outline>
</glyph>
<glyph name="v" format="1">
  <advance width="536"/>
  <unicode hex="0076"/>
  <outline>
    <contour>
      <point x="94" y="0" type="line"/>
      <point x="351" y="0" type="line"/>
      <point x="568" y="534" type="line"/>
      <point x="422" y="534" type="line"/>
      <point x="257" y="117" type="line"/>
      <point x="225" y="117" type="line"/>
      <point x="201" y="534" type="line"/>
      <point x="57" y="534" type="line"/>
    </contour>
  </outline>
</glyph>
<glyph name="w" format="1">
  <advance width="863"/>
  <unicode hex="0077"/>
  <outline>
    <contour>
      <point x="82" y="0" type="line"/>
      <point x="315" y="0" type="line"/>
      <point x="420" y="297" type="line"/>
      <point x="453" y="297" type="line"/>
      <point x="458" y="0" type="line"/>
      <point x="691" y="0" type="line"/>
      <point x="893" y="534" type="line"/>
      <point x="749" y="534" type="line"/>
      <point x="597" y="117" type="line"/>
      <point x="565" y="117" type="line"/>
      <point x="552" y="534" type="line"/>
      <point x="398" y="534" type="line"/>
      <point x="245" y="117" type="line"/>
      <point x="212" y="117" type="line"/>
      <point x="202" y="534" type="line"/>
      <point x="60" y="534" type="line"/>
    </contour>
  </outline>
</glyph>
<glyph name="x" format="1">
  <advance width="582"/>
  <unicode hex="0078"/>
  <outline>
    <contour>
      <point x="-16" y="0" type="line"/>
      <point x="151" y="0" type="line"/>
      <point x="267" y="212" type="line"/>
      <point x="300" y="212" type="line"/>
      <point x="345" y="0" type="line"/>
      <point x="509" y="0" type="line"/>
      <point x="526" y="103" type="line"/>
      <point x="471" y="103" type="line"/>
      <point x="417" y="333" type="line"/>
      <point x="403" y="250" type="line"/>
      <point x="519" y="431" type="line"/>
      <point x="574" y="431" type="line"/>
      <point x="592" y="534" type="line"/>
      <point x="425" y="534" type="line"/>
      <point x="318" y="340" type="line"/>
      <point x="286" y="340" type="line"/>
      <point x="244" y="534" type="line"/>
      <point x="81" y="534" type="line"/>
      <point x="63" y="431" type="line"/>
      <point x="118" y="431" type="line"/>
      <point x="175" y="250" type="line"/>
      <point x="188" y="333" type="line"/>
      <point x="57" y="103" type="line"/>
      <point x="1" y="103" type="line"/>
    </contour>
  </outline>
</glyph>
<glyph name="braceleft" format="1">
  <advance width="360"/>
  <unicode hex="007B"/>
  <outline>
    <contour>
      <point x="128" y="-92" type="curve" smooth="yes"/>
      <point x="268" y="-92" type="line"/>
      <point x="285" y="7" type="line"/>
      <point x="205" y="7" type="line" smooth="yes"/>
      <point x="187" y="7"/>
      <point x="180" y="16"/>
      <point x="182" y="34" type="curve" smooth="yes"/>
      <point x="189" y="67"/>
      <point x="238" y="185"/>
      <point x="247" y="243" type="curve" smooth="yes"/>
      <point x="258" y="300"/>
      <point x="235" y="329"/>
      <point x="180" y="329" type="curve"/>
      <point x="185" y="361" type="line"/>
      <point x="241" y="361"/>
      <point x="273" y="390"/>
      <point x="282" y="447" type="curve" smooth="yes"/>
      <point x="292" y="505"/>
      <point x="282" y="623"/>
      <point x="287" y="656" type="curve" smooth="yes"/>
      <point x="290" y="674"/>
      <point x="300" y="683"/>
      <point x="317" y="683" type="curve" smooth="yes"/>
      <point x="398" y="683" type="line"/>
      <point x="414" y="782" type="line"/>
      <point x="261" y="782" type="line" smooth="yes"/>
      <point x="206" y="782"/>
      <point x="172" y="753"/>
      <point x="163" y="698" type="curve" smooth="yes"/>
      <point x="153" y="638"/>
      <point x="162" y="489"/>
      <point x="154" y="440" type="curve" smooth="yes"/>
      <point x="149" y="410"/>
      <point x="134" y="395"/>
      <point x="109" y="395" type="curve" smooth="yes"/>
      <point x="48" y="395" type="line"/>
      <point x="32" y="295" type="line"/>
      <point x="92" y="295" type="line" smooth="yes"/>
      <point x="118" y="295"/>
      <point x="127" y="280"/>
      <point x="122" y="250" type="curve" smooth="yes"/>
      <point x="113" y="201"/>
      <point x="58" y="65"/>
      <point x="47" y="4" type="curve" smooth="yes"/>
      <point x="37" y="-58"/>
      <point x="65" y="-92"/>
    </contour>
  </outline>
</glyph>
<glyph name="braceright" format="1">
  <advance width="360"/>
  <unicode hex="007D"/>
  <outline>
    <contour>
      <point x="258" y="782" type="curve" smooth="yes"/>
      <point x="118" y="782" type="line"/>
      <point x="101" y="683" type="line"/>
      <point x="181" y="683" type="line" smooth="yes"/>
      <point x="199" y="683"/>
      <point x="206" y="674"/>
      <point x="204" y="656" type="curve" smooth="yes"/>
      <point x="198" y="623"/>
      <point x="148" y="505"/>
      <point x="139" y="447" type="curve" smooth="yes"/>
      <point x="129" y="390"/>
      <point x="151" y="361"/>
      <point x="206" y="361" type="curve"/>
      <point x="201" y="329" type="line"/>
      <point x="146" y="329"/>
      <point x="114" y="300"/>
      <point x="104" y="243" type="curve" smooth="yes"/>
      <point x="95" y="185"/>
      <point x="105" y="67"/>
      <point x="99" y="34" type="curve" smooth="yes"/>
      <point x="96" y="16"/>
      <point x="87" y="7"/>
      <point x="69" y="7" type="curve" smooth="yes"/>
      <point x="-11" y="7" type="line"/>
      <point x="-28" y="-92" type="line"/>
      <point x="125" y="-92" type="line" smooth="yes"/>
      <point x="180" y="-92"/>
      <point x="214" y="-63"/>
      <point x="223" y="-8" type="curve" smooth="yes"/>
      <point x="233" y="52"/>
      <point x="224" y="201"/>
      <point x="233" y="250" type="curve" smooth="yes"/>
      <point x="238" y="280"/>
      <point x="252" y="295"/>
      <point x="278" y="295" type="curve" smooth="yes"/>
      <point x="338" y="295" type="line"/>
      <point x="355" y="395" type="line"/>
      <point x="294" y="395" type="line" smooth="yes"/>
      <point x="269" y="395"/>
      <point x="259" y="410"/>
      <point x="264" y="440" type="curve" smooth="yes"/>
      <point x="273" y="489"/>
      <point x="328" y="625"/>
      <point x="339" y="686" type="curve" smooth="yes"/>
      <point x="350" y="748"/>
      <point x="321" y="782"/>
    </contour>
  </outline>
</glyph>
<glyph name="sterling" format="1">
  <advance width="609"/>
  <unicode hex="00A3"/>
  <outline>
    <contour>
      <point x="23" y="114" type="curve"/>
      <point x="4" y="0" type="line"/>
      <point x="528" y="0" type="line"/>
      <point x="548" y="120" type="line"/>
      <point x="198" y="120" type="line"/>
      <point x="237" y="150"/>
      <point x="264" y="189"/>
      <point x="273" y="244" type="curve" smooth="yes"/>
      <point x="287" y="328"/>
      <point x="240" y="405"/>
      <point x="253" y="482" type="curve" smooth="yes"/>
      <point x="257" y="505" type="line" smooth="yes"/>
      <point x="264" y="550"/>
      <point x="299" y="586"/>
      <point x="366" y="586" type="curve" smooth="yes"/>
      <point x="434" y="586"/>
      <point x="481" y="551"/>
      <point x="470" y="481" type="curve" smooth="yes"/>
      <point x="464" y="448" type="line"/>
      <point x="602" y="448" type="line"/>
      <point x="623" y="628"/>
      <point x="522" y="700"/>
      <point x="364" y="700" type="curve" smooth="yes"/>
      <point x="223" y="700"/>
      <point x="126" y="632"/>
      <point x="107" y="515" type="curve" smooth="yes"/>
      <point x="89" y="408"/>
      <point x="147" y="340"/>
      <point x="133" y="251" type="curve" smooth="yes"/>
      <point x="124" y="197"/>
      <point x="85" y="145"/>
    </contour>
    <contour>
      <point x="42" y="280" type="line"/>
      <point x="454" y="280" type="line"/>
      <point x="471" y="382" type="line"/>
      <point x="59" y="382" type="line"/>
    </contour>
  </outline>
</glyph>
<glyph name="yen" format="1">
  <advance width="616"/>
  <unicode hex="00A5"/>
  <outline>
    <contour>
      <point x="190" y="0" type="line"/>
      <point x="336" y="0" type="line"/>
      <point x="381" y="261" type="line"/>
      <point x="680" y="690" type="line"/>
      <point x="526" y="690" type="line"/>
      <point x="348" y="425" type="line"/>
      <point x="316" y="425" type="line"/>
      <point x="226" y="690" type="line"/>
      <point x="78" y="690" type="line"/>
      <point x="233" y="260" type="line"/>
    </contour>
    <contour>
      <point x="62" y="142" type="line"/>
      <point x="512" y="142" type="line"/>
      <point x="527" y="230" type="line"/>
      <point x="76" y="230" type="line"/>
    </contour>
    <contour>
      <point x="83" y="268" type="line"/>
      <point x="534" y="268" type="line"/>
      <point x="548" y="355" type="line"/>
      <point x="97" y="355" type="line"/>
    </contour>
  </outline>
</glyph>
<glyph name="copyright" format="1">
  <advance width="818"/>
  <unicode hex="00A9"/>
  <outline>
    <contour>
      <point x="383" y="-40" type="curve" smooth="yes"/>
      <point x="584" y="-40"/>
      <point x="740" y="99"/>
      <point x="777" y="325" type="curve" smooth="yes"/>
      <point x="816" y="559"/>
      <point x="693" y="730"/>
      <point x="461" y="730" type="curve" smooth="yes"/>
      <point x="260" y="730"/>
      <point x="104" y="591"/>
      <point x="67" y="365" type="curve" smooth="yes"/>
      <point x="28" y="130"/>
      <point x="151" y="-40"/>
    </contour>
    <contour>
      <point x="376" y="13" type="curve" smooth="yes"/>
      <point x="193" y="13"/>
      <point x="87" y="151"/>
      <point x="118" y="338" type="curve" smooth="yes"/>
      <point x="123" y="372" type="line" smooth="yes"/>
      <point x="154" y="556"/>
      <point x="284" y="677"/>
      <point x="468" y="677" type="curve" smooth="yes"/>
      <point x="651" y="677"/>
      <point x="756" y="539"/>
      <point x="726" y="352" type="curve" smooth="yes"/>
      <point x="720" y="318" type="line" smooth="yes"/>
      <point x="690" y="134"/>
      <point x="559" y="13"/>
    </contour>
    <contour>
      <point x="401" y="100" type="curve" smooth="yes"/>
      <point x="517" y="100"/>
      <point x="604" y="161"/>
      <point x="636" y="284" type="curve"/>
      <point x="498" y="284" type="line"/>
      <point x="496" y="269" type="line" smooth="yes"/>
      <point x="490" y="239"/>
      <point x="469" y="204"/>
      <point x="407" y="204" type="curve" smooth="yes"/>
      <point x="344" y="204"/>
      <point x="318" y="241"/>
      <point x="330" y="313" type="curve" smooth="yes"/>
      <point x="342" y="384" type="line" smooth="yes"/>
      <point x="354" y="456"/>
      <point x="380" y="486"/>
      <point x="443" y="486" type="curve" smooth="yes"/>
      <point x="505" y="486"/>
      <point x="525" y="447"/>
      <point x="522" y="428" type="curve" smooth="yes"/>
      <point x="520" y="414" type="line"/>
      <point x="653" y="414" type="line"/>
      <point x="648" y="531"/>
      <point x="567" y="591"/>
      <point x="448" y="591" type="curve" smooth="yes"/>
      <point x="318" y="591"/>
      <point x="223" y="514"/>
      <point x="198" y="359" type="curve" smooth="yes"/>
      <point x="171" y="193"/>
      <point x="252" y="100"/>
    </contour>
  </outline>
</glyph>
<glyph name="logicalnot" format="1">
  <advance width="474"/>
  <unicode hex="00AC"/>
  <outline>
    <contour>
      <point x="319" y="154" type="line"/>
      <point x="429" y="154" type="line"/>
      <point x="468" y="388" type="line"/>
      <point x="43" y="388" type="line"/>
      <point x="26" y="286" type="line"/>
      <point x="411" y="286" type="line"/>
      <point x="352" y="346" type="line"/>
    </contour>
  </outline>
</glyph>
<glyph name="registered" format="1">
  <advance width="484"/>
  <unicode hex="00AE"/>
  <outline>
    <contour>
      <point x="257" y="294" type="curve" smooth="yes"/>
      <point x="363" y="294"/>
      <point x="452" y="371"/>
      <point x="471" y="485" type="curve" smooth="yes"/>
      <point x="491" y="607"/>
      <point x="420" y="699"/>
      <point x="303" y="699" type="curve" smooth="yes"/>
      <point x="197" y="699"/>
      <point x="108" y="622"/>
      <point x="89" y="508" type="curve" smooth="yes"/>
      <point x="69" y="385"/>
      <point x="140" y="294"/>
    </contour>
    <contour>
      <point x="295" y="382" type="line"/>
      <point x="360" y="382" type="line"/>
      <point x="331" y="489" type="line"/>
      <point x="272" y="482" type="line"/>
    </contour>
    <contour>
      <point x="259" y="334" type="curve" smooth="yes"/>
      <point x="167" y="334"/>
      <point x="115" y="396"/>
      <point x="132" y="493" type="curve" smooth="yes"/>
      <point x="134" y="509" type="line" smooth="yes"/>
      <point x="150" y="604"/>
      <point x="210" y="659"/>
      <point x="302" y="659" type="curve" smooth="yes"/>
      <point x="394" y="659"/>
      <point x="446" y="598"/>
      <point x="429" y="501" type="curve" smooth="yes"/>
      <point x="426" y="485" type="line" smooth="yes"/>
      <point x="410" y="390"/>
      <point x="351" y="334"/>
    </contour>
    <contour>
      <point x="175" y="382" type="line"/>
      <point x="239" y="382" type="line"/>
      <point x="253" y="464" type="line"/>
      <point x="288" y="464" type="line" smooth="yes"/>
      <point x="342" y="464"/>
      <point x="372" y="484"/>
      <point x="379" y="530" type="curve" smooth="yes"/>
      <point x="387" y="578"/>
      <point x="358" y="611"/>
      <point x="302" y="611" type="curve" smooth="yes"/>
      <point x="214" y="611" type="line"/>
    </contour>
    <contour>
      <point x="289" y="506" type="curve" smooth="yes"/>
      <point x="259" y="506" type="line"/>
      <point x="268" y="565" type="line"/>
      <point x="295" y="565" type="line" smooth="yes"/>
      <point x="312" y="565"/>
      <point x="321" y="557"/>
      <point x="318" y="540" type="curve" smooth="yes"/>
      <point x="316" y="529" type="line" smooth="yes"/>
      <point x="313" y="515"/>
      <point x="306" y="506"/>
    </contour>
  </outline>
</glyph>
<glyph name="degree" format="1">
  <advance width="388"/>
  <unicode hex="00B0"/>
  <outline>
    <contour>
      <point x="227" y="371" type="curve" smooth="yes"/>
      <point x="323" y="371"/>
      <point x="389" y="424"/>
      <point x="406" y="525" type="curve" smooth="yes"/>
      <point x="425" y="643"/>
      <point x="354" y="699"/>
      <point x="251" y="699" type="curve" smooth="yes"/>
      <point x="155" y="699"/>
      <point x="89" y="646"/>
      <point x="73" y="545" type="curve" smooth="yes"/>
      <point x="53" y="429"/>
      <point x="123" y="371"/>
    </contour>
    <contour>
      <point x="228" y="450" type="curve" smooth="yes"/>
      <point x="185" y="450"/>
      <point x="165" y="475"/>
      <point x="173" y="520" type="curve" smooth="yes"/>
      <point x="179" y="558" type="line" smooth="yes"/>
      <point x="186" y="602"/>
      <point x="206" y="620"/>
      <point x="249" y="620" type="curve" smooth="yes"/>
      <point x="293" y="620"/>
      <point x="313" y="595"/>
      <point x="306" y="552" type="curve" smooth="yes"/>
      <point x="300" y="514" type="line" smooth="yes"/>
      <point x="292" y="469"/>
      <point x="272" y="450"/>
    </contour>
  </outline>
</glyph>
<glyph name="twosuperior" format="1">
  <advance width="368"/>
  <unicode hex="00B2"/>
  <note>
twosuperior
</note>
  <outline>
    <contour>
      <point x="60" y="454" type="curve" smooth="yes"/>
      <point x="46" y="368" type="line"/>
      <point x="351" y="368" type="line"/>
      <point x="369" y="474" type="line"/>
      <point x="284" y="474" type="line"/>
      <point x="277" y="439" type="line"/>
      <point x="110" y="439" type="line"/>
      <point x="154" y="394" type="line"/>
      <point x="163" y="446" type="line" smooth="yes"/>
      <point x="168" y="474"/>
      <point x="178" y="480"/>
      <point x="204" y="485" type="curve" smooth="yes"/>
      <point x="275" y="497" type="line" smooth="yes"/>
      <point x="354" y="512"/>
      <point x="384" y="539"/>
      <point x="391" y="583" type="curve" smooth="yes"/>
      <point x="392" y="589" type="line" smooth="yes"/>
      <point x="404" y="661"/>
      <point x="323" y="694"/>
      <point x="248" y="694" type="curve" smooth="yes"/>
      <point x="157" y="694"/>
      <point x="102" y="661"/>
      <point x="81" y="576" type="curve"/>
      <point x="183" y="576" type="line"/>
      <point x="184" y="586" type="line" smooth="yes"/>
      <point x="188" y="607"/>
      <point x="204" y="619"/>
      <point x="239" y="619" type="curve" smooth="yes"/>
      <point x="268" y="619"/>
      <point x="289" y="610"/>
      <point x="288" y="594" type="curve" smooth="yes"/>
      <point x="288" y="591" type="line" smooth="yes"/>
      <point x="286" y="574"/>
      <point x="276" y="567"/>
      <point x="250" y="563" type="curve" smooth="yes"/>
      <point x="180" y="551" type="line" smooth="yes"/>
      <point x="100" y="537"/>
      <point x="69" y="511"/>
    </contour>
  </outline>
</glyph>
<glyph name="onesuperior" format="1">
  <advance width="341"/>
  <unicode hex="00B9"/>
  <note>
onesuperior
</note>
  <outline>
    <contour>
      <point x="80" y="368" type="line"/>
      <point x="311" y="368" type="line"/>
      <point x="323" y="439" type="line"/>
      <point x="259" y="439" type="line"/>
      <point x="301" y="690" type="line"/>
      <point x="230" y="690" type="line"/>
      <point x="128" y="652" type="line"/>
      <point x="116" y="578" type="line"/>
      <point x="182" y="599" type="line"/>
      <point x="155" y="439" type="line"/>
      <point x="91" y="439" type="line"/>
    </contour>
  </outline>
</glyph>
<glyph name="questiondown" format="1">
  <advance width="543"/>
  <unicode hex="00BF"/>
  <outline>
    <contour>
      <point x="340" y="284" type="curve" smooth="yes"/>
      <point x="344" y="343" type="line"/>
      <point x="260" y="343" type="line"/>
      <point x="250" y="301" type="line" smooth="yes"/>
      <point x="242" y="274"/>
      <point x="230" y="262"/>
      <point x="191" y="250" type="curve" smooth="yes"/>
      <point x="55" y="212"/>
      <point x="3" y="164"/>
      <point x="-14" y="61" type="curve" smooth="yes"/>
      <point x="-16" y="51" type="line" smooth="yes"/>
      <point x="-40" y="-93"/>
      <point x="74" y="-166"/>
      <point x="225" y="-166" type="curve" smooth="yes"/>
      <point x="372" y="-166"/>
      <point x="461" y="-98"/>
      <point x="500" y="72" type="curve"/>
      <point x="355" y="72" type="line"/>
      <point x="350" y="44" type="line" smooth="yes"/>
      <point x="340" y="-17"/>
      <point x="302" y="-52"/>
      <point x="230" y="-52" type="curve" smooth="yes"/>
      <point x="168" y="-52"/>
      <point x="119" y="-24"/>
      <point x="128" y="31" type="curve" smooth="yes"/>
      <point x="132" y="54" type="line" smooth="yes"/>
      <point x="139" y="94"/>
      <point x="163" y="117"/>
      <point x="221" y="134" type="curve" smooth="yes"/>
      <point x="306" y="162"/>
      <point x="339" y="199"/>
    </contour>
    <contour>
      <point x="410" y="534" type="line"/>
      <point x="258" y="534" type="line"/>
      <point x="233" y="387" type="line"/>
      <point x="386" y="387" type="line"/>
    </contour>
  </outline>
</glyph>
<glyph name="Agrave" format="1">
  <advance width="632"/>
  <unicode hex="00C0"/>
  <note>
Agrave
</note>
  <outline>
    <component base="A"/>
    <component base="gravecomb.case" xOffset="121" yOffset="40"/>
    <contour>
      <point x="573" y="0" type="move" name="ogonek"/>
    </contour>
    <contour>
      <point x="385" y="690" type="move" name="top"/>
    </contour>
  </outline>
</glyph>
<glyph name="Eth" format="1">
  <advance width="702"/>
  <unicode hex="00D0"/>
  <note>
Eth
</note>
  <outline>
    <contour>
      <point x="31" y="302" type="line"/>
      <point x="375" y="302" type="line"/>
      <point x="392" y="402" type="line"/>
      <point x="48" y="402" type="line"/>
    </contour>
    <contour>
      <point x="55" y="0" type="line"/>
      <point x="344" y="0" type="line" smooth="yes"/>
      <point x="541" y="0"/>
      <point x="641" y="88"/>
      <point x="680" y="328" type="curve" smooth="yes"/>
      <point x="720" y="568"/>
      <point x="631" y="690"/>
      <point x="434" y="690" type="curve" smooth="yes"/>
      <point x="109" y="690" type="line"/>
      <point x="91" y="583" type="line"/>
      <point x="153" y="583" type="line"/>
    </contour>
    <contour>
      <point x="348" y="107" type="curve" smooth="yes"/>
      <point x="220" y="107" type="line"/>
      <point x="300" y="583" type="line"/>
      <point x="410" y="583" type="line" smooth="yes"/>
      <point x="512" y="583"/>
      <point x="559" y="526"/>
      <point x="539" y="405" type="curve" smooth="yes"/>
      <point x="518" y="280" type="line" smooth="yes"/>
      <point x="498" y="159"/>
      <point x="451" y="107"/>
    </contour>
  </outline>
</glyph>
<glyph name="multiply" format="1">
  <advance width="474"/>
  <unicode hex="00D7"/>
  <outline>
    <contour>
      <point x="91" y="135" type="line"/>
      <point x="472" y="461" type="line"/>
      <point x="406" y="539" type="line"/>
      <point x="25" y="213" type="line"/>
    </contour>
    <contour>
      <point x="349" y="137" type="line"/>
      <point x="427" y="204" type="line"/>
      <point x="149" y="537" type="line"/>
      <point x="71" y="470" type="line"/>
    </contour>
  </outline>
</glyph>
<glyph name="Oslash" format="1">
  <advance width="698"/>
  <unicode hex="00D8"/>
  <note>
Oslash
</note>
  <outline>
    <contour>
      <point x="329" y="-10" type="curve" smooth="yes"/>
      <point x="510" y="-10"/>
      <point x="629" y="98"/>
      <point x="667" y="327" type="curve" smooth="yes"/>
      <point x="709" y="579"/>
      <point x="600" y="700"/>
      <point x="395" y="700" type="curve" smooth="yes"/>
      <point x="215" y="700"/>
      <point x="96" y="592"/>
      <point x="58" y="363" type="curve" smooth="yes"/>
      <point x="16" y="111"/>
      <point x="125" y="-10"/>
    </contour>
    <contour>
      <point x="331" y="103" type="curve" smooth="yes"/>
      <point x="225" y="103"/>
      <point x="178" y="162"/>
      <point x="199" y="285" type="curve" smooth="yes"/>
      <point x="220" y="411" type="line" smooth="yes"/>
      <point x="240" y="533"/>
      <point x="287" y="587"/>
      <point x="393" y="587" type="curve" smooth="yes"/>
      <point x="500" y="587"/>
      <point x="547" y="528"/>
      <point x="527" y="405" type="curve" smooth="yes"/>
      <point x="506" y="279" type="line" smooth="yes"/>
      <point x="485" y="157"/>
      <point x="437" y="103"/>
    </contour>
    <contour>
      <point x="-2" y="-10" type="line"/>
      <point x="105" y="-10" type="line"/>
      <point x="176" y="69" type="line"/>
      <point x="184" y="69" type="line"/>
      <point x="604" y="571" type="line"/>
      <point x="613" y="571" type="line"/>
      <point x="727" y="700" type="line"/>
      <point x="620" y="700" type="line"/>
      <point x="549" y="622" type="line"/>
      <point x="542" y="622" type="line"/>
      <point x="121" y="120" type="line"/>
      <point x="113" y="120" type="line"/>
    </contour>
    <contour>
      <point x="420" y="690" type="move" name="top"/>
    </contour>
  </outline>
</glyph>
<glyph name="idieresis" format="1">
  <advance width="272"/>
  <unicode hex="00EF"/>
  <outline>
    <component base="idotless"/>
    <component base="dieresiscomb.narrow" xOffset="-61"/>
    <contour>
      <point x="184" y="534" type="move" name="top"/>
    </contour>
  </outline>
</glyph>
<glyph name="divide" format="1">
  <advance width="474"/>
  <unicode hex="00F7"/>
  <outline>
    <contour>
      <point x="206" y="439" type="line"/>
      <point x="325" y="439" type="line"/>
      <point x="344" y="553" type="line"/>
      <point x="226" y="553" type="line"/>
    </contour>
    <contour>
      <point x="154" y="121" type="line"/>
      <point x="272" y="121" type="line"/>
      <point x="291" y="235" type="line"/>
      <point x="172" y="235" type="line"/>
    </contour>
    <contour>
      <point x="28" y="286" type="line"/>
      <point x="453" y="286" type="line"/>
      <point x="470" y="388" type="line"/>
      <point x="45" y="388" type="line"/>
    </contour>
  </outline>
</glyph>
<glyph name="Aogonek" format="1">
  <advance width="632"/>
  <unicode hex="0104"/>
  <outline>
    <contour>
      <point x="-25" y="0" type="line"/>
      <point x="126" y="0" type="line"/>
      <point x="355" y="569" type="line"/>
      <point x="388" y="569" type="line"/>
      <point x="427" y="0" type="line"/>
      <point x="573" y="0" type="line"/>
      <point x="522" y="690" type="line"/>
      <point x="258" y="690" type="line"/>
    </contour>
    <contour>
      <point x="128" y="153" type="line"/>
      <point x="461" y="153" type="line"/>
      <point x="476" y="255" type="line"/>
      <point x="146" y="255" type="line"/>
    </contour>
    <contour>
      <point x="151" y="583" type="line"/>
      <point x="338" y="583" type="line"/>
      <point x="356" y="690" type="line"/>
      <point x="169" y="690" type="line"/>
    </contour>
    <contour>
      <point x="449" y="-143" type="curve" smooth="yes"/>
      <point x="557" y="-143" type="line"/>
      <point x="570" y="-64" type="line"/>
      <point x="501" y="-64" type="line" smooth="yes"/>
      <point x="484" y="-64"/>
      <point x="477" y="-58"/>
      <point x="479" y="-45" type="curve" smooth="yes"/>
      <point x="482" y="-27"/>
      <point x="506" y="-15"/>
      <point x="573" y="0" type="curve"/>
      <point x="472" y="19" type="line"/>
      <point x="466" y="-20" type="line"/>
      <point x="403" y="-28"/>
      <point x="378" y="-42"/>
      <point x="372" y="-79" type="curve" smooth="yes"/>
      <point x="366" y="-117"/>
      <point x="393" y="-143"/>
    </contour>
    <contour>
      <point x="573" y="0" type="move" name="ogonek"/>
    </contour>
    <contour>
      <point x="385" y="690" type="move" name="top"/>
    </contour>
  </outline>
</glyph>
<glyph name="Cacute" format="1">
  <advance width="669"/>
  <unicode hex="0106"/>
  <outline>
    <component base="C"/>
    <component base="acutecomb.case" xOffset="148" yOffset="40"/>
    <contour>
      <point x="296" y="0" type="move" name="bottom"/>
    </contour>
    <contour>
      <point x="412" y="690" type="move" name="top"/>
    </contour>
  </outline>
</glyph>
<glyph name="idotless" format="1">
  <advance width="272"/>
  <unicode hex="0131"/>
  <outline>
    <contour>
      <point x="24" y="0" type="line"/>
      <point x="167" y="0" type="line"/>
      <point x="257" y="534" type="line"/>
      <point x="57" y="534" type="line"/>
      <point x="39" y="431" type="line"/>
      <point x="97" y="431" type="line"/>
    </contour>
    <contour>
      <point x="184" y="534" type="move" name="top"/>
    </contour>
  </outline>
</glyph>
<glyph name="oe" format="1">
  <advance width="962"/>
  <unicode hex="0153"/>
  <note>
oe
</note>
  <outline>
    <contour>
      <point x="268" y="-10" type="curve" smooth="yes"/>
      <point x="352" y="-10"/>
      <point x="419" y="21"/>
      <point x="446" y="77" type="curve"/>
      <point x="479" y="77" type="line"/>
      <point x="516" y="4"/>
      <point x="581" y="-10"/>
      <point x="657" y="-10" type="curve" smooth="yes"/>
      <point x="781" y="-10"/>
      <point x="867" y="51"/>
      <point x="905" y="172" type="curve"/>
      <point x="759" y="172" type="line"/>
      <point x="758" y="162" type="line"/>
      <point x="754" y="138"/>
      <point x="729" y="100"/>
      <point x="660" y="100" type="curve" smooth="yes"/>
      <point x="589" y="100"/>
      <point x="557" y="141"/>
      <point x="571" y="229" type="curve" smooth="yes"/>
      <point x="586" y="314" type="line" smooth="yes"/>
      <point x="601" y="400"/>
      <point x="633" y="437"/>
      <point x="704" y="437" type="curve" smooth="yes"/>
      <point x="775" y="437"/>
      <point x="807" y="394"/>
      <point x="792" y="309" type="curve" smooth="yes"/>
      <point x="786" y="268" type="line"/>
      <point x="836" y="329" type="line"/>
      <point x="528" y="329" type="line"/>
      <point x="512" y="239" type="line"/>
      <point x="923" y="239" type="line"/>
      <point x="928" y="273" type="line" smooth="yes"/>
      <point x="960" y="454"/>
      <point x="863" y="544"/>
      <point x="707" y="544" type="curve" smooth="yes"/>
      <point x="628" y="544"/>
      <point x="555" y="510"/>
      <point x="529" y="457" type="curve"/>
      <point x="496" y="457" type="line"/>
      <point x="469" y="513"/>
      <point x="413" y="544"/>
      <point x="313" y="544" type="curve" smooth="yes"/>
      <point x="165" y="544"/>
      <point x="64" y="453"/>
      <point x="36" y="282" type="curve" smooth="yes"/>
      <point x="6" y="101"/>
      <point x="96" y="-10"/>
    </contour>
    <contour>
      <point x="269" y="100" type="curve" smooth="yes"/>
      <point x="197" y="100"/>
      <point x="163" y="143"/>
      <point x="178" y="229" type="curve" smooth="yes"/>
      <point x="192" y="311" type="line" smooth="yes"/>
      <point x="206" y="396"/>
      <point x="239" y="434"/>
      <point x="312" y="434" type="curve" smooth="yes"/>
      <point x="385" y="434"/>
      <point x="418" y="391"/>
      <point x="404" y="305" type="curve" smooth="yes"/>
      <point x="390" y="223" type="line" smooth="yes"/>
      <point x="375" y="138"/>
      <point x="342" y="100"/>
    </contour>
  </outline>
</glyph>
<glyph name="zacute" format="1">
  <advance width="492"/>
  <unicode hex="017A"/>
  <outline>
    <component base="z"/>
    <component base="acutecomb" xOffset="46"/>
    <contour>
      <point x="291" y="534" type="move" name="top"/>
    </contour>
  </outline>
</glyph>
<glyph name="florin" format="1">
  <advance width="459"/>
  <unicode hex="0192"/>
  <outline>
    <contour>
      <point x="-1" y="0" type="line"/>
      <point x="167" y="0" type="line" smooth="yes"/>
      <point x="221" y="0"/>
      <point x="254" y="28"/>
      <point x="263" y="82" type="curve" smooth="yes"/>
      <point x="347" y="583" type="line"/>
      <point x="474" y="583" type="line"/>
      <point x="492" y="690" type="line"/>
      <point x="304" y="690" type="line" smooth="yes"/>
      <point x="251" y="690"/>
      <point x="218" y="662"/>
      <point x="209" y="608" type="curve" smooth="yes"/>
      <point x="124" y="107" type="line"/>
      <point x="17" y="107" type="line"/>
    </contour>
    <contour>
      <point x="62" y="371" type="line"/>
      <point x="439" y="371" type="line"/>
      <point x="454" y="463" type="line"/>
      <point x="77" y="463" type="line"/>
    </contour>
  </outline>
</glyph>
<glyph name="ogonek" format="1">
  <advance width="400"/>
  <unicode hex="02DB"/>
  <outline>
    <component base="ogonekcomb" identifier="38D552F7"/>
    <contour>
      <point x="155" y="0" type="move" name="_ogonek"/>
    </contour>
  </outline>
</glyph>
<glyph name="hungarumlaut" format="1">
  <advance width="400"/>
  <unicode hex="02DD"/>
  <outline>
    <component base="acutecomb" xOffset="-89" identifier="933768EC"/>
    <component base="acutecomb" xOffset="89" identifier="4A7FCC24"/>
    <contour>
      <point x="156" y="534" type="move" name="_top"/>
    </contour>
  </outline>
</glyph>
<glyph name="tildecomb" format="1">
  <advance width="0"/>
  <unicode hex="0303"/>
  <note>
tilde
</note>
  <outline>
    <contour>
      <point x="322" y="569" type="curve" smooth="yes"/>
      <point x="385" y="569"/>
      <point x="424" y="605"/>
      <point x="433" y="668" type="curve" smooth="yes"/>
      <point x="437" y="700" type="line"/>
      <point x="345" y="700" type="line"/>
      <point x="340" y="674" type="line" smooth="yes"/>
      <point x="338" y="660"/>
      <point x="330" y="653"/>
      <point x="318" y="653" type="curve" smooth="yes"/>
      <point x="283" y="653"/>
      <point x="275" y="706"/>
      <point x="202" y="706" type="curve" smooth="yes"/>
      <point x="139" y="706"/>
      <point x="101" y="671"/>
      <point x="91" y="607" type="curve" smooth="yes"/>
      <point x="86" y="575" type="line"/>
      <point x="179" y="575" type="line"/>
      <point x="183" y="601" type="line" smooth="yes"/>
      <point x="185" y="615"/>
      <point x="194" y="622"/>
      <point x="207" y="622" type="curve" smooth="yes"/>
      <point x="242" y="622"/>
      <point x="248" y="569"/>
    </contour>
    <contour>
      <point x="245" y="534" type="move" name="_top"/>
    </contour>
  </outline>
</glyph>
<glyph name="dieresiscomb" format="1">
  <advance width="0"/>
  <unicode hex="0308"/>
  <outline>
    <contour>
      <point x="79" y="574" type="line"/>
      <point x="230" y="574" type="line"/>
      <point x="249" y="690" type="line"/>
      <point x="99" y="690" type="line"/>
    </contour>
    <contour>
      <point x="273" y="574" type="line"/>
      <point x="424" y="574" type="line"/>
      <point x="443" y="690" type="line"/>
      <point x="293" y="690" type="line"/>
    </contour>
    <contour>
      <point x="245" y="534" type="move" name="_top"/>
    </contour>
  </outline>
</glyph>
<glyph name="ogonekcomb" format="1">
  <advance width="0"/>
  <unicode hex="0328"/>
  <outline>
    <contour>
      <point x="31" y="-143" type="curve" smooth="yes"/>
      <point x="138" y="-143" type="line"/>
      <point x="152" y="-64" type="line"/>
      <point x="83" y="-64" type="line" smooth="yes"/>
      <point x="65" y="-64"/>
      <point x="58" y="-58"/>
      <point x="61" y="-45" type="curve" smooth="yes"/>
      <point x="64" y="-27"/>
      <point x="87" y="-15"/>
      <point x="155" y="0" type="curve"/>
      <point x="52" y="18" type="line"/>
      <point x="45" y="-21" type="line"/>
      <point x="-15" y="-28"/>
      <point x="-41" y="-42"/>
      <point x="-47" y="-79" type="curve" smooth="yes"/>
      <point x="-53" y="-117"/>
      <point x="-26" y="-143"/>
    </contour>
    <contour>
      <point x="155" y="0" type="move" name="_ogonek"/>
    </contour>
  </outline>
</glyph>
<glyph name="emdash" format="1">
  <advance width="779"/>
  <unicode hex="2014"/>
  <outline>
    <contour>
      <point x="50" y="233" type="line"/>
      <point x="717" y="233" type="line"/>
      <point x="735" y="335" type="line"/>
      <point x="68" y="335" type="line"/>
    </contour>
  </outline>
</glyph>
<glyph name="daggerdbl" format="1">
  <advance width="489"/>
  <unicode hex="2021"/>
  <outline>
    <contour>
      <point x="79" y="438" type="line"/>
      <point x="468" y="438" type="line"/>
      <point x="484" y="534" type="line"/>
      <point x="404" y="534" type="line"/>
      <point x="324" y="491" type="line"/>
      <point x="318" y="496" type="line"/>
      <point x="358" y="589" type="line"/>
      <point x="376" y="690" type="line"/>
      <point x="256" y="690" type="line"/>
      <point x="238" y="589" type="line"/>
      <point x="249" y="496" type="line"/>
      <point x="241" y="491" type="line"/>
      <point x="175" y="534" type="line"/>
      <point x="95" y="534" type="line"/>
    </contour>
    <contour>
      <point x="140" y="0" type="line"/>
      <point x="260" y="0" type="line"/>
      <point x="277" y="101" type="line"/>
      <point x="267" y="194" type="line"/>
      <point x="275" y="199" type="line"/>
      <point x="341" y="156" type="line"/>
      <point x="420" y="156" type="line"/>
      <point x="436" y="252" type="line"/>
      <point x="48" y="252" type="line"/>
      <point x="31" y="156" type="line"/>
      <point x="111" y="156" type="line"/>
      <point x="192" y="199" type="line"/>
      <point x="198" y="194" type="line"/>
      <point x="157" y="101" type="line"/>
    </contour>
    <contour>
      <point x="196" y="292" type="line"/>
      <point x="302" y="292" type="line"/>
      <point x="320" y="398" type="line"/>
      <point x="214" y="398" type="line"/>
    </contour>
  </outline>
</glyph>
<glyph name="perthousand" format="1">
  <advance width="1189"/>
  <unicode hex="2030"/>
  <outline>
    <contour>
      <point x="8" y="0" type="line"/>
      <point x="141" y="0" type="line"/>
      <point x="402" y="322" type="line"/>
      <point x="269" y="322" type="line"/>
    </contour>
    <contour>
      <point x="406" y="368" type="line"/>
      <point x="540" y="368" type="line"/>
      <point x="800" y="690" type="line"/>
      <point x="667" y="690" type="line"/>
    </contour>
    <contour>
      <point x="250" y="360" type="curve" smooth="yes"/>
      <point x="363" y="360"/>
      <point x="436" y="424"/>
      <point x="451" y="519" type="curve" smooth="yes"/>
      <point x="470" y="634"/>
      <point x="389" y="700"/>
      <point x="272" y="700" type="curve" smooth="yes"/>
      <point x="159" y="700"/>
      <point x="86" y="636"/>
      <point x="70" y="541" type="curve" smooth="yes"/>
      <point x="51" y="426"/>
      <point x="133" y="360"/>
    </contour>
    <contour>
      <point x="250" y="443" type="curve" smooth="yes"/>
      <point x="201" y="443"/>
      <point x="178" y="470"/>
      <point x="184" y="513" type="curve" smooth="yes"/>
      <point x="191" y="553" type="line" smooth="yes"/>
      <point x="198" y="595"/>
      <point x="222" y="617"/>
      <point x="272" y="617" type="curve" smooth="yes"/>
      <point x="321" y="617"/>
      <point x="344" y="589"/>
      <point x="337" y="547" type="curve" smooth="yes"/>
      <point x="331" y="507" type="line" smooth="yes"/>
      <point x="324" y="465"/>
      <point x="300" y="443"/>
    </contour>
    <contour>
      <point x="536" y="-10" type="curve" smooth="yes"/>
      <point x="649" y="-10"/>
      <point x="722" y="54"/>
      <point x="738" y="149" type="curve" smooth="yes"/>
      <point x="757" y="264"/>
      <point x="675" y="330"/>
      <point x="558" y="330" type="curve" smooth="yes"/>
      <point x="445" y="330"/>
      <point x="372" y="266"/>
      <point x="357" y="171" type="curve" smooth="yes"/>
      <point x="338" y="56"/>
      <point x="419" y="-10"/>
    </contour>
    <contour>
      <point x="537" y="73" type="curve" smooth="yes"/>
      <point x="488" y="73"/>
      <point x="464" y="100"/>
      <point x="471" y="143" type="curve" smooth="yes"/>
      <point x="477" y="183" type="line" smooth="yes"/>
      <point x="484" y="225"/>
      <point x="509" y="247"/>
      <point x="558" y="247" type="curve" smooth="yes"/>
      <point x="608" y="247"/>
      <point x="630" y="219"/>
      <point x="624" y="177" type="curve" smooth="yes"/>
      <point x="617" y="137" type="line" smooth="yes"/>
      <point x="610" y="95"/>
      <point x="587" y="73"/>
    </contour>
    <contour>
      <point x="951" y="-10" type="curve" smooth="yes"/>
      <point x="1063" y="-10"/>
      <point x="1137" y="54"/>
      <point x="1152" y="149" type="curve" smooth="yes"/>
      <point x="1171" y="264"/>
      <point x="1090" y="330"/>
      <point x="973" y="330" type="curve" smooth="yes"/>
      <point x="860" y="330"/>
      <point x="787" y="266"/>
      <point x="771" y="171" type="curve" smooth="yes"/>
      <point x="752" y="56"/>
      <point x="834" y="-10"/>
    </contour>
    <contour>
      <point x="951" y="73" type="curve" smooth="yes"/>
      <point x="902" y="73"/>
      <point x="879" y="100"/>
      <point x="885" y="143" type="curve" smooth="yes"/>
      <point x="892" y="183" type="line" smooth="yes"/>
      <point x="899" y="225"/>
      <point x="923" y="247"/>
      <point x="973" y="247" type="curve" smooth="yes"/>
      <point x="1022" y="247"/>
      <point x="1045" y="219"/>
      <point x="1038" y="177" type="curve" smooth="yes"/>
      <point x="1032" y="137" type="line" smooth="yes"/>
      <point x="1025" y="95"/>
      <point x="1001" y="73"/>
    </contour>
  </outline>
</glyph>
<glyph name="guilsinglleft" format="1">
  <advance width="332"/>
  <unicode hex="2039"/>
  <outline>
    <contour>
      <point x="141" y="82" type="line"/>
      <point x="263" y="82" type="line"/>
      <point x="165" y="274" type="line"/>
      <point x="169" y="294" type="line"/>
      <point x="328" y="486" type="line"/>
      <point x="199" y="486" type="line"/>
      <point x="46" y="316" type="line"/>
      <point x="37" y="264" type="line"/>
    </contour>
  </outline>
</glyph>
<glyph name="guilsinglright" format="1">
  <advance width="332"/>
  <unicode hex="203A"/>
  <outline>
    <contour>
      <point x="198" y="486" type="line"/>
      <point x="75" y="486" type="line"/>
      <point x="173" y="294" type="line"/>
      <point x="169" y="274" type="line"/>
      <point x="10" y="82" type="line"/>
      <point x="139" y="82" type="line"/>
      <point x="292" y="252" type="line"/>
      <point x="301" y="304" type="line"/>
    </contour>
  </outline>
</glyph>
<glyph name="euro" format="1">
  <advance width="711"/>
  <unicode hex="20AC"/>
  <outline>
    <contour>
      <point x="372" y="-10" type="curve" smooth="yes"/>
      <point x="520" y="-10"/>
      <point x="628" y="71"/>
      <point x="674" y="236" type="curve"/>
      <point x="526" y="236" type="line"/>
      <point x="522" y="212" type="line" smooth="yes"/>
      <point x="513" y="160"/>
      <point x="470" y="104"/>
      <point x="379" y="104" type="curve" smooth="yes"/>
      <point x="286" y="104"/>
      <point x="238" y="163"/>
      <point x="258" y="285" type="curve" smooth="yes"/>
      <point x="279" y="412" type="line" smooth="yes"/>
      <point x="299" y="532"/>
      <point x="347" y="586"/>
      <point x="441" y="586" type="curve" smooth="yes"/>
      <point x="529" y="586"/>
      <point x="568" y="534"/>
      <point x="566" y="499" type="curve" smooth="yes"/>
      <point x="562" y="475" type="line"/>
      <point x="706" y="475" type="line"/>
      <point x="694" y="623"/>
      <point x="598" y="700"/>
      <point x="448" y="700" type="curve" smooth="yes"/>
      <point x="276" y="700"/>
      <point x="157" y="592"/>
      <point x="118" y="362" type="curve" smooth="yes"/>
      <point x="78" y="116"/>
      <point x="177" y="-10"/>
    </contour>
    <contour>
      <point x="42" y="246" type="line"/>
      <point x="470" y="246" type="line"/>
      <point x="485" y="333" type="line"/>
      <point x="57" y="333" type="line"/>
    </contour>
    <contour>
      <point x="64" y="371" type="line"/>
      <point x="492" y="371" type="line"/>
      <point x="506" y="458" type="line"/>
      <point x="78" y="458" type="line"/>
    </contour>
  </outline>
</glyph>
<glyph name="literSign" format="1">
  <advance width="587"/>
  <unicode hex="2113"/>
  <outline>
    <contour>
      <point x="300" y="-10" type="curve" smooth="yes"/>
      <point x="411" y="-10"/>
      <point x="493" y="48"/>
      <point x="533" y="172" type="curve"/>
      <point x="388" y="172" type="line"/>
      <point x="386" y="161" type="line" smooth="yes"/>
      <point x="383" y="138"/>
      <point x="361" y="100"/>
      <point x="304" y="100" type="curve" smooth="yes"/>
      <point x="243" y="100"/>
      <point x="223" y="148"/>
      <point x="242" y="265" type="curve" smooth="yes"/>
      <point x="270" y="430" type="line" smooth="yes"/>
      <point x="290" y="548"/>
      <point x="316" y="590"/>
      <point x="379" y="590" type="curve" smooth="yes"/>
      <point x="433" y="590"/>
      <point x="460" y="555"/>
      <point x="451" y="500" type="curve" smooth="yes"/>
      <point x="444" y="461" type="line" smooth="yes"/>
      <point x="436" y="415"/>
      <point x="410" y="389"/>
      <point x="343" y="366" type="curve" smooth="yes"/>
      <point x="33" y="262" type="line"/>
      <point x="15" y="155" type="line"/>
      <point x="397" y="285" type="line" smooth="yes"/>
      <point x="525" y="329"/>
      <point x="576" y="380"/>
      <point x="592" y="479" type="curve" smooth="yes"/>
      <point x="617" y="627"/>
      <point x="519" y="700"/>
      <point x="386" y="700" type="curve" smooth="yes"/>
      <point x="235" y="700"/>
      <point x="147" y="601"/>
      <point x="107" y="359" type="curve" smooth="yes"/>
      <point x="67" y="122"/>
      <point x="118" y="-10"/>
    </contour>
  </outline>
</glyph>
<glyph name="trademark" format="1">
  <advance width="911"/>
  <unicode hex="2122"/>
  <outline>
    <contour>
      <point x="162" y="304" type="line"/>
      <point x="253" y="304" type="line"/>
      <point x="307" y="624" type="line"/>
      <point x="354" y="624" type="line"/>
      <point x="343" y="562" type="line"/>
      <point x="418" y="562" type="line"/>
      <point x="440" y="690" type="line"/>
      <point x="105" y="690" type="line"/>
      <point x="84" y="562" type="line"/>
      <point x="158" y="562" type="line"/>
      <point x="169" y="624" type="line"/>
      <point x="216" y="624" type="line"/>
    </contour>
    <contour>
      <point x="410" y="304" type="line"/>
      <point x="500" y="304" type="line"/>
      <point x="552" y="615" type="line"/>
      <point x="572" y="615" type="line"/>
      <point x="587" y="304" type="line"/>
      <point x="671" y="304" type="line"/>
      <point x="790" y="615" type="line"/>
      <point x="810" y="615" type="line"/>
      <point x="757" y="304" type="line"/>
      <point x="850" y="304" type="line"/>
      <point x="915" y="690" type="line"/>
      <point x="750" y="690" type="line"/>
      <point x="665" y="467" type="line"/>
      <point x="645" y="467" type="line"/>
      <point x="637" y="690" type="line"/>
      <point x="475" y="690" type="line"/>
    </contour>
  </outline>
</glyph>
<glyph name="partialdiff" format="1">
  <advance width="579"/>
  <unicode hex="2202"/>
  <outline>
    <contour>
      <point x="262" y="-10" type="curve" smooth="yes"/>
      <point x="410" y="-10"/>
      <point x="510" y="82"/>
      <point x="541" y="269" type="curve" smooth="yes"/>
      <point x="577" y="486"/>
      <point x="484" y="679"/>
      <point x="242" y="697" type="curve"/>
      <point x="221" y="570" type="line"/>
      <point x="364" y="561"/>
      <point x="407" y="467"/>
      <point x="412" y="397" type="curve"/>
      <point x="379" y="397" type="line"/>
      <point x="369" y="465"/>
      <point x="320" y="494"/>
      <point x="255" y="494" type="curve" smooth="yes"/>
      <point x="141" y="494"/>
      <point x="55" y="407"/>
      <point x="31" y="261" type="curve" smooth="yes"/>
      <point x="1" y="80"/>
      <point x="103" y="-10"/>
    </contour>
    <contour>
      <point x="265" y="100" type="curve" smooth="yes"/>
      <point x="193" y="100"/>
      <point x="162" y="141"/>
      <point x="173" y="212" type="curve" smooth="yes"/>
      <point x="185" y="282" type="line" smooth="yes"/>
      <point x="197" y="354"/>
      <point x="228" y="389"/>
      <point x="299" y="389" type="curve" smooth="yes"/>
      <point x="370" y="389"/>
      <point x="401" y="348"/>
      <point x="390" y="277" type="curve" smooth="yes"/>
      <point x="378" y="207" type="line" smooth="yes"/>
      <point x="366" y="135"/>
      <point x="336" y="100"/>
    </contour>
  </outline>
</glyph>
<glyph name="increment" format="1">
  <advance width="619"/>
  <unicode hex="2206"/>
  <outline>
    <contour>
      <point x="-17" y="0" type="line"/>
      <point x="546" y="0" type="line"/>
      <point x="564" y="107" type="line"/>
      <point x="512" y="690" type="line"/>
      <point x="250" y="690" type="line"/>
      <point x="1" y="107" type="line"/>
    </contour>
    <contour>
      <point x="150" y="107" type="line"/>
      <point x="346" y="569" type="line"/>
      <point x="378" y="569" type="line"/>
      <point x="419" y="107" type="line"/>
    </contour>
  </outline>
</glyph>
<glyph name="product" format="1">
  <advance width="732"/>
  <unicode hex="220F"/>
  <outline>
    <contour>
      <point x="435" y="0" type="line"/>
      <point x="582" y="0" type="line"/>
      <point x="680" y="583" type="line"/>
      <point x="758" y="583" type="line"/>
      <point x="776" y="690" type="line"/>
      <point x="98" y="690" type="line"/>
      <point x="80" y="583" type="line"/>
      <point x="159" y="583" type="line"/>
      <point x="61" y="0" type="line"/>
      <point x="207" y="0" type="line"/>
      <point x="306" y="583" type="line"/>
      <point x="533" y="583" type="line"/>
    </contour>
  </outline>
</glyph>
<glyph name="radical" format="1">
  <advance width="538"/>
  <unicode hex="221A"/>
  <outline>
    <contour>
      <point x="77" y="-1" type="line"/>
      <point x="324" y="-1" type="line"/>
      <point x="585" y="690" type="line"/>
      <point x="446" y="690" type="line"/>
      <point x="233" y="117" type="line"/>
      <point x="201" y="117" type="line"/>
      <point x="187" y="404" type="line"/>
      <point x="52" y="404" type="line"/>
    </contour>
  </outline>
</glyph>
<glyph name="infinity" format="1">
  <advance width="672"/>
  <unicode hex="221E"/>
  <outline>
    <contour>
      <point x="171" y="179" type="curve" smooth="yes"/>
      <point x="239" y="179"/>
      <point x="296" y="222"/>
      <point x="326" y="279" type="curve"/>
      <point x="358" y="279" type="line"/>
      <point x="375" y="222"/>
      <point x="422" y="179"/>
      <point x="488" y="179" type="curve" smooth="yes"/>
      <point x="559" y="179"/>
      <point x="628" y="233"/>
      <point x="643" y="329" type="curve" smooth="yes"/>
      <point x="660" y="429"/>
      <point x="606" y="495"/>
      <point x="525" y="495" type="curve" smooth="yes"/>
      <point x="457" y="495"/>
      <point x="399" y="452"/>
      <point x="370" y="395" type="curve"/>
      <point x="337" y="395" type="line"/>
      <point x="320" y="454"/>
      <point x="272" y="495"/>
      <point x="207" y="495" type="curve" smooth="yes"/>
      <point x="137" y="495"/>
      <point x="68" y="441"/>
      <point x="52" y="345" type="curve" smooth="yes"/>
      <point x="36" y="249"/>
      <point x="86" y="179"/>
    </contour>
    <contour>
      <point x="199" y="275" type="curve" smooth="yes"/>
      <point x="165" y="275"/>
      <point x="147" y="298"/>
      <point x="153" y="335" type="curve" smooth="yes"/>
      <point x="155" y="345" type="line" smooth="yes"/>
      <point x="161" y="382"/>
      <point x="179" y="399"/>
      <point x="212" y="399" type="curve" smooth="yes"/>
      <point x="248" y="399"/>
      <point x="279" y="378"/>
      <point x="306" y="337" type="curve"/>
      <point x="272" y="296"/>
      <point x="234" y="275"/>
    </contour>
    <contour>
      <point x="483" y="275" type="curve" smooth="yes"/>
      <point x="447" y="275"/>
      <point x="417" y="296"/>
      <point x="390" y="337" type="curve"/>
      <point x="424" y="378"/>
      <point x="461" y="399"/>
      <point x="496" y="399" type="curve" smooth="yes"/>
      <point x="530" y="399"/>
      <point x="548" y="376"/>
      <point x="542" y="339" type="curve" smooth="yes"/>
      <point x="540" y="329" type="line" smooth="yes"/>
      <point x="535" y="292"/>
      <point x="516" y="275"/>
    </contour>
  </outline>
</glyph>
<glyph name="fl" format="1">
  <advance width="644"/>
  <unicode hex="FB02"/>
  <outline>
    <contour>
      <point x="160" y="608" type="curve" smooth="yes"/>
      <point x="58" y="0" type="line"/>
      <point x="201" y="0" type="line"/>
      <point x="299" y="587" type="line"/>
      <point x="407" y="587" type="line"/>
      <point x="425" y="690" type="line"/>
      <point x="256" y="690" type="line" smooth="yes"/>
      <point x="202" y="690"/>
      <point x="169" y="662"/>
    </contour>
    <contour>
      <point x="-8" y="0" type="line"/>
      <point x="294" y="0" type="line"/>
      <point x="312" y="103" type="line"/>
      <point x="10" y="103" type="line"/>
    </contour>
    <contour>
      <point x="58" y="431" type="line"/>
      <point x="381" y="431" type="line"/>
      <point x="399" y="534" type="line"/>
      <point x="75" y="534" type="line"/>
    </contour>
    <contour>
      <point x="395" y="0" type="line"/>
      <point x="538" y="0" type="line"/>
      <point x="654" y="690" type="line"/>
      <point x="454" y="690" type="line"/>
      <point x="436" y="587" type="line"/>
      <point x="493" y="587" type="line"/>
    </contour>
    <contour>
      <point x="392" y="690" type="line"/>
      <point x="374" y="587" type="line"/>
      <point x="472" y="587" type="line"/>
      <point x="490" y="690" type="line"/>
    </contour>
  </outline>
</glyph>
<glyph name="dragonFace" format="1">
  <advance width="600"/>
  <unicode hex="1F432"/>
  <outline>
    <contour>
      <point x="362" y="469" type="line"/>
      <point x="603" y="606" type="line"/>
      <point x="561" y="678" type="line"/>
      <point x="341" y="654" type="line"/>
      <point x="354" y="638" type="line"/>
      <point x="383" y="852" type="line"/>
      <point x="312" y="896" type="line"/>
      <point x="195" y="702" type="line"/>
      <point x="240" y="673" type="line"/>
      <point x="345" y="852" type="line"/>
      <point x="330" y="852" type="line"/>
      <point x="305" y="646" type="line"/>
      <point x="338" y="603" type="line"/>
      <point x="555" y="630" type="line"/>
      <point x="555" y="638" type="line"/>
      <point x="330" y="514" type="line"/>
    </contour>
    <contour>
      <point x="10" y="36" type="curve"/>
      <point x="10" y="-20" type="line"/>
      <point x="159" y="-20"/>
      <point x="288" y="34"/>
      <point x="288" y="198" type="curve"/>
      <point x="234" y="198" type="line"/>
      <point x="234" y="74"/>
      <point x="134" y="36"/>
    </contour>
    <contour>
      <point x="278" y="0" type="line"/>
      <point x="578" y="0" type="line"/>
      <point x="578" y="50" type="line"/>
      <point x="278" y="50" type="line"/>
    </contour>
    <contour>
      <point x="234" y="198" type="line"/>
      <point x="288" y="198" type="line"/>
      <point x="288" y="333" type="line"/>
      <point x="234" y="333" type="line"/>
    </contour>
    <contour>
      <point x="338" y="250" type="line"/>
      <point x="453" y="250" type="line"/>
      <point x="453" y="300" type="line"/>
      <point x="338" y="300" type="line"/>
    </contour>
    <contour>
      <point x="195" y="333" type="line"/>
      <point x="249" y="333" type="line"/>
      <point x="249" y="387" type="line"/>
      <point x="195" y="387" type="line"/>
    </contour>
    <contour>
      <point x="453" y="199" type="line"/>
      <point x="503" y="199" type="line"/>
      <point x="503" y="249" type="line"/>
      <point x="453" y="249" type="line"/>
    </contour>
    <contour>
      <point x="338" y="335" type="line"/>
      <point x="453" y="335" type="line"/>
      <point x="453" y="385" type="line"/>
      <point x="338" y="385" type="line"/>
    </contour>
    <contour>
      <point x="150" y="387" type="line"/>
      <point x="204" y="387" type="line"/>
      <point x="204" y="562" type="line"/>
      <point x="150" y="562" type="line"/>
    </contour>
    <contour>
      <point x="453" y="285" type="line"/>
      <point x="503" y="285" type="line"/>
      <point x="503" y="335" type="line"/>
      <point x="453" y="335" type="line"/>
    </contour>
    <contour>
      <point x="104" y="562" type="line"/>
      <point x="158" y="562" type="line"/>
      <point x="158" y="650" type="line"/>
      <point x="104" y="650" type="line"/>
    </contour>
    <contour>
      <point x="257" y="604" type="line"/>
      <point x="282" y="647" type="line"/>
      <point x="240" y="673" type="line"/>
      <point x="214" y="630" type="line"/>
    </contour>
    <contour>
      <point x="482" y="803" type="line"/>
      <point x="521" y="766" type="line"/>
      <point x="687" y="956" type="line"/>
      <point x="648" y="993" type="line"/>
    </contour>
    <contour>
      <point x="425" y="834" type="line"/>
      <point x="479" y="834" type="line"/>
      <point x="479" y="984" type="line"/>
      <point x="425" y="984" type="line"/>
    </contour>
    <contour>
      <point x="561" y="775" type="line"/>
      <point x="561" y="721" type="line"/>
      <point x="711" y="721" type="line"/>
      <point x="711" y="775" type="line"/>
    </contour>
  </outline>
</glyph>
<glyph name="personalComputer" format="1">
  <advance width="884"/>
  <unicode hex="1F4BB"/>
  <outline>
    <contour>
      <point x="575" y="0" type="line"/>
      <point x="710" y="0" type="line"/>
      <point x="879" y="690" type="line"/>
      <point x="744" y="690" type="line"/>
    </contour>
    <contour>
      <point x="50" y="0" type="line"/>
      <point x="203" y="0" type="line"/>
      <point x="203" y="147" type="line"/>
      <point x="50" y="147" type="line"/>
    </contour>
    <contour>
      <point x="50" y="387" type="line"/>
      <point x="203" y="387" type="line"/>
      <point x="203" y="534" type="line"/>
      <point x="50" y="534" type="line"/>
    </contour>
    <contour>
      <point x="292" y="0" type="line"/>
      <point x="427" y="0" type="line"/>
      <point x="597" y="690" type="line"/>
      <point x="462" y="690" type="line"/>
    </contour>
  </outline>
</glyph>
<glyph name="B.ss03" format="1">
  <advance width="626"/>
  <outline>
    <contour>
      <point x="24" y="0" type="line"/>
      <point x="335" y="0" type="line" smooth="yes"/>
      <point x="471" y="0"/>
      <point x="552" y="54"/>
      <point x="572" y="176" type="curve" smooth="yes"/>
      <point x="587" y="268"/>
      <point x="545" y="327"/>
      <point x="467" y="332" type="curve"/>
      <point x="473" y="365" type="line"/>
      <point x="561" y="370"/>
      <point x="604" y="403"/>
      <point x="618" y="491" type="curve" smooth="yes"/>
      <point x="637" y="609"/>
      <point x="564" y="690"/>
      <point x="431" y="690" type="curve"/>
      <point x="140" y="690" type="line"/>
    </contour>
    <contour>
      <point x="339" y="107" type="curve" smooth="yes"/>
      <point x="188" y="107" type="line"/>
      <point x="221" y="302" type="line"/>
      <point x="362" y="302" type="line" smooth="yes"/>
      <point x="414" y="302"/>
      <point x="438" y="274"/>
      <point x="429" y="222" type="curve" smooth="yes"/>
      <point x="422" y="179" type="line" smooth="yes"/>
      <point x="413" y="129"/>
      <point x="391" y="107"/>
    </contour>
    <contour>
      <point x="386" y="402" type="curve" smooth="yes"/>
      <point x="238" y="402" type="line"/>
      <point x="268" y="583" type="line"/>
      <point x="406" y="583" type="line" smooth="yes"/>
      <point x="455" y="583"/>
      <point x="478" y="557"/>
      <point x="470" y="508" type="curve" smooth="yes"/>
      <point x="464" y="469" type="line" smooth="yes"/>
      <point x="456" y="423"/>
      <point x="435" y="402"/>
    </contour>
  </outline>
</glyph>
<glyph name="D.ss03" format="1">
  <advance width="679"/>
  <outline>
    <contour>
      <point x="24" y="0" type="line"/>
      <point x="312" y="0" type="line" smooth="yes"/>
      <point x="509" y="0"/>
      <point x="609" y="88"/>
      <point x="649" y="328" type="curve" smooth="yes"/>
      <point x="689" y="568"/>
      <point x="599" y="690"/>
      <point x="403" y="690" type="curve"/>
      <point x="140" y="690" type="line"/>
    </contour>
    <contour>
      <point x="316" y="107" type="curve" smooth="yes"/>
      <point x="188" y="107" type="line"/>
      <point x="269" y="583" type="line"/>
      <point x="378" y="583" type="line" smooth="yes"/>
      <point x="481" y="583"/>
      <point x="527" y="526"/>
      <point x="507" y="405" type="curve" smooth="yes"/>
      <point x="487" y="280" type="line" smooth="yes"/>
      <point x="466" y="159"/>
      <point x="419" y="107"/>
    </contour>
  </outline>
</glyph>
<glyph name="E.ss03" format="1">
  <advance width="598"/>
  <outline>
    <contour>
      <point x="464" y="483" type="line"/>
      <point x="586" y="483" type="line"/>
      <point x="621" y="690" type="line"/>
      <point x="140" y="690" type="line"/>
      <point x="24" y="0" type="line"/>
      <point x="509" y="0" type="line"/>
      <point x="545" y="211" type="line"/>
      <point x="423" y="211" type="line"/>
      <point x="405" y="107" type="line"/>
      <point x="189" y="107" type="line"/>
      <point x="222" y="302" type="line"/>
      <point x="453" y="302" type="line"/>
      <point x="469" y="402" type="line"/>
      <point x="239" y="402" type="line"/>
      <point x="269" y="583" type="line"/>
      <point x="481" y="583" type="line"/>
    </contour>
    <contour>
      <point x="509" y="0" type="move" name="ogonek"/>
    </contour>
    <contour>
      <point x="378" y="690" type="move" name="top"/>
    </contour>
  </outline>
</glyph>
<glyph name="H.ss03" format="1">
  <advance width="671"/>
  <outline>
    <contour>
      <point x="410" y="0" type="line"/>
      <point x="557" y="0" type="line"/>
      <point x="673" y="690" type="line"/>
      <point x="526" y="690" type="line"/>
    </contour>
    <contour>
      <point x="24" y="0" type="line"/>
      <point x="170" y="0" type="line"/>
      <point x="286" y="690" type="line"/>
      <point x="140" y="690" type="line"/>
    </contour>
    <contour>
      <point x="166" y="301" type="line"/>
      <point x="513" y="301" type="line"/>
      <point x="530" y="403" type="line"/>
      <point x="183" y="403" type="line"/>
    </contour>
  </outline>
</glyph>
<glyph name="K.ss03" format="1">
  <advance width="632"/>
  <outline>
    <contour>
      <point x="23" y="0" type="line"/>
      <point x="169" y="0" type="line"/>
      <point x="220" y="303" type="line"/>
      <point x="284" y="303" type="line"/>
      <point x="411" y="0" type="line"/>
      <point x="576" y="0" type="line"/>
      <point x="594" y="104" type="line"/>
      <point x="531" y="104" type="line"/>
      <point x="406" y="390" type="line"/>
      <point x="410" y="331" type="line"/>
      <point x="685" y="690" type="line"/>
      <point x="512" y="690" type="line"/>
      <point x="301" y="405" type="line"/>
      <point x="238" y="405" type="line"/>
      <point x="285" y="690" type="line"/>
      <point x="139" y="690" type="line"/>
    </contour>
  </outline>
</glyph>
<glyph name="M.ss04" format="1">
  <advance width="899"/>
  <outline>
    <contour>
      <point x="32" y="0" type="line"/>
      <point x="175" y="0" type="line"/>
      <point x="270" y="569" type="line"/>
      <point x="303" y="569" type="line"/>
      <point x="340" y="0" type="line"/>
      <point x="473" y="0" type="line"/>
      <point x="702" y="569" type="line"/>
      <point x="734" y="569" type="line"/>
      <point x="639" y="0" type="line"/>
      <point x="785" y="0" type="line"/>
      <point x="901" y="690" type="line"/>
      <point x="635" y="690" type="line"/>
      <point x="464" y="263" type="line"/>
      <point x="432" y="263" type="line"/>
      <point x="404" y="690" type="line"/>
      <point x="148" y="690" type="line"/>
    </contour>
    <contour>
      <point x="149" y="583" type="line"/>
      <point x="167" y="690" type="line"/>
      <point x="85" y="690" type="line"/>
      <point x="67" y="583" type="line"/>
    </contour>
  </outline>
</glyph>
<glyph name="P.ss03" format="1">
  <advance width="605"/>
  <outline>
    <contour>
      <point x="23" y="0" type="line"/>
      <point x="170" y="0" type="line"/>
      <point x="216" y="275" type="line"/>
      <point x="376" y="275" type="line" smooth="yes"/>
      <point x="519" y="275"/>
      <point x="594" y="331"/>
      <point x="617" y="466" type="curve" smooth="yes"/>
      <point x="640" y="606"/>
      <point x="572" y="690"/>
      <point x="426" y="690" type="curve" smooth="yes"/>
      <point x="139" y="690" type="line"/>
    </contour>
    <contour>
      <point x="377" y="375" type="curve" smooth="yes"/>
      <point x="233" y="375" type="line"/>
      <point x="268" y="583" type="line"/>
      <point x="401" y="583" type="line" smooth="yes"/>
      <point x="456" y="583"/>
      <point x="482" y="554"/>
      <point x="473" y="498" type="curve" smooth="yes"/>
      <point x="465" y="454" type="line" smooth="yes"/>
      <point x="456" y="399"/>
      <point x="432" y="375"/>
    </contour>
  </outline>
</glyph>
<glyph name="a.ss01" format="1">
  <advance width="615"/>
  <outline>
    <contour>
      <point x="197" y="-10" type="curve" smooth="yes"/>
      <point x="272" y="-10"/>
      <point x="321" y="31"/>
      <point x="348" y="108" type="curve"/>
      <point x="380" y="108" type="line"/>
      <point x="378" y="92" type="line" smooth="yes"/>
      <point x="368" y="33"/>
      <point x="395" y="0"/>
      <point x="457" y="0" type="curve" smooth="yes"/>
      <point x="541" y="0" type="line"/>
      <point x="558" y="103" type="line"/>
      <point x="503" y="103" type="line"/>
      <point x="576" y="534" type="line"/>
      <point x="452" y="534" type="line"/>
      <point x="433" y="426" type="line"/>
      <point x="401" y="426" type="line"/>
      <point x="393" y="503"/>
      <point x="344" y="544"/>
      <point x="267" y="544" type="curve" smooth="yes"/>
      <point x="149" y="544"/>
      <point x="67" y="455"/>
      <point x="38" y="282" type="curve" smooth="yes"/>
      <point x="9" y="109"/>
      <point x="70" y="-10"/>
    </contour>
    <contour>
      <point x="266" y="100" type="curve" smooth="yes"/>
      <point x="196" y="100"/>
      <point x="165" y="143"/>
      <point x="180" y="229" type="curve" smooth="yes"/>
      <point x="194" y="311" type="line" smooth="yes"/>
      <point x="208" y="396"/>
      <point x="238" y="434"/>
      <point x="308" y="434" type="curve" smooth="yes"/>
      <point x="378" y="434"/>
      <point x="408" y="391"/>
      <point x="394" y="305" type="curve" smooth="yes"/>
      <point x="380" y="223" type="line" smooth="yes"/>
      <point x="366" y="138"/>
      <point x="335" y="100"/>
    </contour>
    <contour>
      <point x="541" y="0" type="move" name="ogonek"/>
    </contour>
    <contour>
      <point x="332" y="534" type="move" name="top"/>
    </contour>
  </outline>
</glyph>
<glyph name="dieresiscomb.narrow" format="1">
  <advance width="0"/>
  <outline>
    <contour>
      <point x="93" y="574" type="line"/>
      <point x="238" y="574" type="line"/>
      <point x="257" y="690" type="line"/>
      <point x="113" y="690" type="line"/>
    </contour>
    <contour>
      <point x="265" y="574" type="line"/>
      <point x="410" y="574" type="line"/>
      <point x="429" y="690" type="line"/>
      <point x="285" y="690" type="line"/>
    </contour>
    <contour>
      <point x="245" y="534" type="move" name="_top"/>
    </contour>
  </outline>
</glyph>
<glyph name="exclamdown.case" format="1">
  <advance width="261"/>
  <outline>
    <contour>
      <point x="211" y="499" type="line"/>
      <point x="128" y="499" type="line"/>
      <point x="26" y="107" type="line"/>
      <point x="9" y="0" type="line"/>
      <point x="163" y="0" type="line"/>
      <point x="181" y="107" type="line"/>
    </contour>
    <contour>
      <point x="278" y="690" type="line"/>
      <point x="125" y="690" type="line"/>
      <point x="101" y="543" type="line"/>
      <point x="253" y="543" type="line"/>
    </contour>
  </outline>
</glyph>
<glyph name="f_f" format="1">
  <advance width="753"/>
  <outline>
    <contour>
      <point x="160" y="608" type="curve" smooth="yes"/>
      <point x="58" y="0" type="line"/>
      <point x="201" y="0" type="line"/>
      <point x="299" y="587" type="line"/>
      <point x="407" y="587" type="line"/>
      <point x="425" y="690" type="line"/>
      <point x="256" y="690" type="line" smooth="yes"/>
      <point x="202" y="690"/>
      <point x="169" y="662"/>
    </contour>
    <contour>
      <point x="-8" y="0" type="line"/>
      <point x="294" y="0" type="line"/>
      <point x="312" y="103" type="line"/>
      <point x="10" y="103" type="line"/>
    </contour>
    <contour>
      <point x="58" y="431" type="line"/>
      <point x="381" y="431" type="line"/>
      <point x="399" y="534" type="line"/>
      <point x="75" y="534" type="line"/>
    </contour>
    <contour>
      <point x="537" y="608" type="curve" smooth="yes"/>
      <point x="435" y="0" type="line"/>
      <point x="578" y="0" type="line"/>
      <point x="676" y="587" type="line"/>
      <point x="784" y="587" type="line"/>
      <point x="802" y="690" type="line"/>
      <point x="633" y="690" type="line" smooth="yes"/>
      <point x="579" y="690"/>
      <point x="546" y="662"/>
    </contour>
    <contour>
      <point x="369" y="0" type="line"/>
      <point x="671" y="0" type="line"/>
      <point x="689" y="103" type="line"/>
      <point x="386" y="103" type="line"/>
    </contour>
    <contour>
      <point x="434" y="431" type="line"/>
      <point x="758" y="431" type="line"/>
      <point x="776" y="534" type="line"/>
      <point x="452" y="534" type="line"/>
    </contour>
    <contour>
      <point x="320" y="431" type="line"/>
      <point x="502" y="431" type="line"/>
      <point x="520" y="534" type="line"/>
      <point x="337" y="534" type="line"/>
    </contour>
  </outline>
</glyph>
<glyph name="f_f_j" format="1">
  <advance width="1025"/>
  <outline>
    <contour>
      <point x="160" y="608" type="curve" smooth="yes"/>
      <point x="58" y="0" type="line"/>
      <point x="201" y="0" type="line"/>
      <point x="299" y="587" type="line"/>
      <point x="407" y="587" type="line"/>
      <point x="425" y="690" type="line"/>
      <point x="256" y="690" type="line" smooth="yes"/>
      <point x="202" y="690"/>
      <point x="169" y="662"/>
    </contour>
    <contour>
      <point x="-8" y="0" type="line"/>
      <point x="294" y="0" type="line"/>
      <point x="312" y="103" type="line"/>
      <point x="10" y="103" type="line"/>
    </contour>
    <contour>
      <point x="58" y="431" type="line"/>
      <point x="381" y="431" type="line"/>
      <point x="399" y="534" type="line"/>
      <point x="75" y="534" type="line"/>
    </contour>
    <contour>
      <point x="537" y="608" type="curve" smooth="yes"/>
      <point x="435" y="0" type="line"/>
      <point x="578" y="0" type="line"/>
      <point x="676" y="587" type="line"/>
      <point x="784" y="587" type="line"/>
      <point x="802" y="690" type="line"/>
      <point x="633" y="690" type="line" smooth="yes"/>
      <point x="579" y="690"/>
      <point x="546" y="662"/>
    </contour>
    <contour>
      <point x="369" y="0" type="line"/>
      <point x="671" y="0" type="line"/>
      <point x="689" y="103" type="line"/>
      <point x="387" y="103" type="line"/>
    </contour>
    <contour>
      <point x="435" y="431" type="line"/>
      <point x="758" y="431" type="line"/>
      <point x="776" y="534" type="line"/>
      <point x="452" y="534" type="line"/>
    </contour>
    <contour>
      <point x="691" y="-132" type="line"/>
      <point x="816" y="-132" type="line" smooth="yes"/>
      <point x="870" y="-132"/>
      <point x="903" y="-104"/>
      <point x="912" y="-50" type="curve" smooth="yes"/>
      <point x="1010" y="534" type="line"/>
      <point x="810" y="534" type="line"/>
      <point x="792" y="431" type="line"/>
      <point x="850" y="431" type="line"/>
      <point x="773" y="-29" type="line"/>
      <point x="709" y="-29" type="line"/>
    </contour>
    <contour>
      <point x="866" y="574" type="line"/>
      <point x="1020" y="574" type="line"/>
      <point x="1039" y="690" type="line"/>
      <point x="886" y="690" type="line"/>
    </contour>
    <contour>
      <point x="732" y="534" type="line"/>
      <point x="715" y="431" type="line"/>
      <point x="822" y="431" type="line"/>
      <point x="840" y="534" type="line"/>
    </contour>
    <contour>
      <point x="314" y="431" type="line"/>
      <point x="496" y="431" type="line"/>
      <point x="514" y="534" type="line"/>
      <point x="331" y="534" type="line"/>
    </contour>
  </outline>
</glyph>
<glyph name="f_j" format="1">
  <advance width="649"/>
  <outline>
    <contour>
      <point x="160" y="608" type="curve" smooth="yes"/>
      <point x="58" y="0" type="line"/>
      <point x="201" y="0" type="line"/>
      <point x="299" y="587" type="line"/>
      <point x="407" y="587" type="line"/>
      <point x="425" y="690" type="line"/>
      <point x="256" y="690" type="line" smooth="yes"/>
      <point x="202" y="690"/>
      <point x="169" y="662"/>
    </contour>
    <contour>
      <point x="-8" y="0" type="line"/>
      <point x="294" y="0" type="line"/>
      <point x="312" y="103" type="line"/>
      <point x="10" y="103" type="line"/>
    </contour>
    <contour>
      <point x="58" y="431" type="line"/>
      <point x="381" y="431" type="line"/>
      <point x="399" y="534" type="line"/>
      <point x="75" y="534" type="line"/>
    </contour>
    <contour>
      <point x="315" y="-132" type="line"/>
      <point x="440" y="-132" type="line" smooth="yes"/>
      <point x="493" y="-132"/>
      <point x="526" y="-104"/>
      <point x="535" y="-50" type="curve" smooth="yes"/>
      <point x="634" y="534" type="line"/>
      <point x="434" y="534" type="line"/>
      <point x="416" y="431" type="line"/>
      <point x="473" y="431" type="line"/>
      <point x="396" y="-29" type="line"/>
      <point x="333" y="-29" type="line"/>
    </contour>
    <contour>
      <point x="490" y="574" type="line"/>
      <point x="643" y="574" type="line"/>
      <point x="663" y="690" type="line"/>
      <point x="509" y="690" type="line"/>
    </contour>
    <contour>
      <point x="355" y="534" type="line"/>
      <point x="338" y="431" type="line"/>
      <point x="445" y="431" type="line"/>
      <point x="463" y="534" type="line"/>
    </contour>
  </outline>
</glyph>
<glyph name="f_k" format="1">
  <advance width="949"/>
  <outline>
    <contour>
      <point x="160" y="608" type="curve" smooth="yes"/>
      <point x="58" y="0" type="line"/>
      <point x="201" y="0" type="line"/>
      <point x="299" y="587" type="line"/>
      <point x="407" y="587" type="line"/>
      <point x="425" y="690" type="line"/>
      <point x="256" y="690" type="line" smooth="yes"/>
      <point x="202" y="690"/>
      <point x="169" y="662"/>
    </contour>
    <contour>
      <point x="-8" y="0" type="line"/>
      <point x="294" y="0" type="line"/>
      <point x="312" y="103" type="line"/>
      <point x="10" y="103" type="line"/>
    </contour>
    <contour>
      <point x="58" y="431" type="line"/>
      <point x="381" y="431" type="line"/>
      <point x="399" y="534" type="line"/>
      <point x="75" y="534" type="line"/>
    </contour>
    <contour>
      <point x="392" y="0" type="line"/>
      <point x="535" y="0" type="line"/>
      <point x="573" y="226" type="line"/>
      <point x="630" y="226" type="line"/>
      <point x="734" y="0" type="line"/>
      <point x="887" y="0" type="line"/>
      <point x="904" y="103" type="line"/>
      <point x="849" y="103" type="line"/>
      <point x="746" y="313" type="line"/>
      <point x="750" y="252" type="line"/>
      <point x="976" y="534" type="line"/>
      <point x="807" y="534" type="line"/>
      <point x="647" y="326" type="line"/>
      <point x="590" y="326" type="line"/>
      <point x="651" y="690" type="line"/>
      <point x="453" y="690" type="line"/>
      <point x="435" y="587" type="line"/>
      <point x="490" y="587" type="line"/>
    </contour>
    <contour>
      <point x="393" y="690" type="line"/>
      <point x="375" y="587" type="line"/>
      <point x="474" y="587" type="line"/>
      <point x="491" y="690" type="line"/>
    </contour>
  </outline>
</glyph>
<glyph name="f_thorn" format="1">
  <advance width="973"/>
  <outline>
    <contour>
      <point x="160" y="608" type="curve" smooth="yes"/>
      <point x="58" y="0" type="line"/>
      <point x="201" y="0" type="line"/>
      <point x="299" y="587" type="line"/>
      <point x="407" y="587" type="line"/>
      <point x="425" y="690" type="line"/>
      <point x="256" y="690" type="line" smooth="yes"/>
      <point x="202" y="690"/>
      <point x="169" y="662"/>
    </contour>
    <contour>
      <point x="-8" y="0" type="line"/>
      <point x="294" y="0" type="line"/>
      <point x="312" y="103" type="line"/>
      <point x="10" y="103" type="line"/>
    </contour>
    <contour>
      <point x="58" y="431" type="line"/>
      <point x="381" y="431" type="line"/>
      <point x="399" y="534" type="line"/>
      <point x="75" y="534" type="line"/>
    </contour>
    <contour>
      <point x="370" y="-132" type="line"/>
      <point x="513" y="-132" type="line"/>
      <point x="531" y="-26" type="line" smooth="yes"/>
      <point x="536" y="4"/>
      <point x="541" y="36"/>
      <point x="546" y="99" type="curve"/>
      <point x="578" y="99" type="line"/>
      <point x="585" y="26"/>
      <point x="628" y="-10"/>
      <point x="704" y="-10" type="curve" smooth="yes"/>
      <point x="823" y="-10"/>
      <point x="907" y="79"/>
      <point x="936" y="252" type="curve" smooth="yes"/>
      <point x="964" y="425"/>
      <point x="902" y="544"/>
      <point x="774" y="544" type="curve" smooth="yes"/>
      <point x="702" y="544"/>
      <point x="656" y="508"/>
      <point x="631" y="435" type="curve"/>
      <point x="598" y="435" type="line"/>
      <point x="616" y="498"/>
      <point x="624" y="530"/>
      <point x="629" y="561" type="curve" smooth="yes"/>
      <point x="651" y="690" type="line"/>
      <point x="453" y="690" type="line"/>
      <point x="436" y="587" type="line"/>
      <point x="491" y="587" type="line"/>
    </contour>
    <contour>
      <point x="662" y="100" type="curve" smooth="yes"/>
      <point x="591" y="100"/>
      <point x="560" y="143"/>
      <point x="574" y="229" type="curve" smooth="yes"/>
      <point x="588" y="311" type="line" smooth="yes"/>
      <point x="602" y="396"/>
      <point x="634" y="434"/>
      <point x="705" y="434" type="curve" smooth="yes"/>
      <point x="776" y="434"/>
      <point x="808" y="391"/>
      <point x="794" y="305" type="curve" smooth="yes"/>
      <point x="780" y="223" type="line" smooth="yes"/>
      <point x="765" y="138"/>
      <point x="734" y="100"/>
    </contour>
    <contour>
      <point x="394" y="690" type="line"/>
      <point x="376" y="587" type="line"/>
      <point x="474" y="587" type="line"/>
      <point x="492" y="690" type="line"/>
    </contour>
  </outline>
</glyph>
<glyph name="iacute_j.loclNLD" format="1">
  <advance width="544"/>
  <outline>
    <component base="idotless" identifier="71BE9711"/>
    <component base="acutecomb" xOffset="-61" identifier="B554C7D1"/>
    <component base="jdotless" xOffset="272" identifier="B96D353A"/>
    <component base="acutecomb" xOffset="210" identifier="160C8936"/>
    <contour>
      <point x="456" y="534" type="move" name="top"/>
    </contour>
  </outline>
</glyph>
<glyph name="mozilla_wordmark" format="1">
  <advance width="3474"/>
  <outline>
    <contour>
      <point x="60" y="690" type="line"/>
      <point x="60" y="0" type="line"/>
      <point x="202" y="0" type="line"/>
      <point x="202" y="569" type="line"/>
      <point x="234" y="569" type="line"/>
      <point x="358" y="0" type="line"/>
      <point x="492" y="0" type="line"/>
      <point x="616" y="569" type="line"/>
      <point x="648" y="569" type="line"/>
      <point x="648" y="0" type="line"/>
      <point x="790" y="0" type="line"/>
      <point x="790" y="690" type="line"/>
      <point x="530" y="690" type="line"/>
      <point x="441" y="252" type="line"/>
      <point x="409" y="252" type="line"/>
      <point x="320" y="690" type="line"/>
    </contour>
    <contour>
      <point x="1135" y="-10" type="curve" smooth="yes"/>
      <point x="1299" y="-10"/>
      <point x="1394" y="88"/>
      <point x="1394" y="267" type="curve" smooth="yes"/>
      <point x="1394" y="446"/>
      <point x="1299" y="544"/>
      <point x="1135" y="544" type="curve" smooth="yes"/>
      <point x="971" y="544"/>
      <point x="876" y="446"/>
      <point x="876" y="267" type="curve" smooth="yes"/>
      <point x="876" y="88"/>
      <point x="971" y="-10"/>
    </contour>
    <contour>
      <point x="1026" y="228" type="curve" smooth="yes"/>
      <point x="1026" y="306" type="line" smooth="yes"/>
      <point x="1026" y="394"/>
      <point x="1061" y="434"/>
      <point x="1135" y="434" type="curve" smooth="yes"/>
      <point x="1209" y="434"/>
      <point x="1244" y="394"/>
      <point x="1244" y="306" type="curve" smooth="yes"/>
      <point x="1244" y="228" type="line" smooth="yes"/>
      <point x="1244" y="140"/>
      <point x="1209" y="100"/>
      <point x="1135" y="100" type="curve" smooth="yes"/>
      <point x="1061" y="100"/>
      <point x="1026" y="140"/>
    </contour>
    <contour>
      <point x="1452" y="103" type="line"/>
      <point x="1452" y="0" type="line"/>
      <point x="1896" y="0" type="line"/>
      <point x="1896" y="103" type="line"/>
      <point x="1621" y="103" type="line"/>
      <point x="1892" y="431" type="line"/>
      <point x="1892" y="534" type="line"/>
      <point x="1456" y="534" type="line"/>
      <point x="1456" y="431" type="line"/>
      <point x="1723" y="431" type="line"/>
    </contour>
    <contour>
      <point x="2028" y="431" type="line"/>
      <point x="2028" y="0" type="line"/>
      <point x="2170" y="0" type="line"/>
      <point x="2170" y="534" type="line"/>
      <point x="1970" y="534" type="line"/>
      <point x="1970" y="431" type="line"/>
    </contour>
    <contour>
      <point x="2028" y="690" type="line"/>
      <point x="2028" y="587" type="line"/>
      <point x="2170" y="587" type="line"/>
      <point x="2170" y="690" type="line"/>
    </contour>
    <contour>
      <point x="2322" y="587" type="line"/>
      <point x="2322" y="0" type="line"/>
      <point x="2464" y="0" type="line"/>
      <point x="2464" y="690" type="line"/>
      <point x="2264" y="690" type="line"/>
      <point x="2264" y="587" type="line"/>
    </contour>
    <contour>
      <point x="2616" y="587" type="line"/>
      <point x="2616" y="0" type="line"/>
      <point x="2758" y="0" type="line"/>
      <point x="2758" y="690" type="line"/>
      <point x="2558" y="690" type="line"/>
      <point x="2558" y="587" type="line"/>
    </contour>
    <contour>
      <point x="3063" y="-10" type="curve" smooth="yes"/>
      <point x="3142" y="-10"/>
      <point x="3194" y="29"/>
      <point x="3209" y="97" type="curve"/>
      <point x="3241" y="97" type="line"/>
      <point x="3241" y="88" type="line" smooth="yes"/>
      <point x="3241" y="31"/>
      <point x="3272" y="0"/>
      <point x="3329" y="0" type="curve" smooth="yes"/>
      <point x="3410" y="0" type="line"/>
      <point x="3410" y="103" type="line"/>
      <point x="3352" y="103" type="line"/>
      <point x="3352" y="431" type="line"/>
      <point x="3410" y="431" type="line"/>
      <point x="3410" y="534" type="line"/>
      <point x="3241" y="534" type="line"/>
      <point x="3241" y="437" type="line"/>
      <point x="3209" y="437" type="line"/>
      <point x="3194" y="505"/>
      <point x="3142" y="544"/>
      <point x="3063" y="544" type="curve" smooth="yes"/>
      <point x="2938" y="544"/>
      <point x="2850" y="438"/>
      <point x="2850" y="267" type="curve" smooth="yes"/>
      <point x="2850" y="96"/>
      <point x="2938" y="-10"/>
    </contour>
    <contour>
      <point x="3000" y="228" type="curve" smooth="yes"/>
      <point x="3000" y="306" type="line" smooth="yes"/>
      <point x="3000" y="394"/>
      <point x="3033" y="434"/>
      <point x="3105" y="434" type="curve" smooth="yes"/>
      <point x="3177" y="434"/>
      <point x="3210" y="394"/>
      <point x="3210" y="306" type="curve" smooth="yes"/>
      <point x="3210" y="228" type="line" smooth="yes"/>
      <point x="3210" y="140"/>
      <point x="3177" y="100"/>
      <point x="3105" y="100" type="curve" smooth="yes"/>
      <point x="3033" y="100"/>
      <point x="3000" y="140"/>
    </contour>
  </outline>
</glyph>
